<?xml version="1.0" encoding="UTF-8" standalone="no"?>
<svg
   xmlns:dc="http://purl.org/dc/elements/1.1/"
   xmlns:cc="http://creativecommons.org/ns#"
   xmlns:rdf="http://www.w3.org/1999/02/22-rdf-syntax-ns#"
   xmlns:svg="http://www.w3.org/2000/svg"
   xmlns="http://www.w3.org/2000/svg"
   xmlns:sodipodi="http://sodipodi.sourceforge.net/DTD/sodipodi-0.dtd"
   xmlns:inkscape="http://www.inkscape.org/namespaces/inkscape"
   sodipodi:docname="admboat.svg"
   inkscape:version="1.0.2 (e86c870879, 2021-01-15, custom)"
   id="svg113"
   version="1.1"
   viewBox="0 0 119.0625 66.145835"
   height="250"
   width="450">
  <defs
     id="defs107" />
  <sodipodi:namedview
     inkscape:window-maximized="1"
     inkscape:window-y="0"
     inkscape:window-x="50"
     inkscape:window-height="750"
     inkscape:window-width="1316"
     units="px"
     showgrid="false"
     inkscape:document-rotation="0"
     inkscape:current-layer="layer1"
     inkscape:document-units="mm"
     inkscape:cy="187.8686"
     inkscape:cx="191.24423"
     inkscape:zoom="0.95015253"
     inkscape:pageshadow="2"
     inkscape:pageopacity="0.0"
     borderopacity="1.0"
     bordercolor="#666666"
     pagecolor="#ffffff"
     id="base" />
  <metadata
     id="metadata110">
    <rdf:RDF>
      <cc:Work
         rdf:about="">
        <dc:format>image/svg+xml</dc:format>
        <dc:type
           rdf:resource="http://purl.org/dc/dcmitype/StillImage" />
        <dc:title></dc:title>
      </cc:Work>
    </rdf:RDF>
  </metadata>
  <g
     id="layer1"
     inkscape:groupmode="layer"
     inkscape:label="Layer 1">
    <path
       d="m 11.067343,35.217371 c -0.533452,0 -0.856755,-0.307138 -0.856755,-0.775929 0,-0.75976 0.775929,-1.180055 2.311618,-1.228551 v 0.307138 c 0,0.986075 -0.662771,1.697342 -1.454863,1.697342 z m 4.801051,1.713507 c -0.145479,-0.630441 -0.210152,-1.357873 -0.210152,-2.214626 v -3.313857 c 0,-1.050736 -0.355634,-1.891323 -1.066902,-2.554095 -0.695101,-0.662771 -1.681176,-1.00224 -2.942059,-1.00224 -1.16389,0 -2.1337992,0.290973 -2.8935622,0.872918 -0.7597632,0.581945 -1.2123862,1.374039 -1.3417084,2.360114 H 10.55005 c 0.097,-0.484956 0.420295,-0.727433 0.986075,-0.727433 0.662771,0 0.986075,0.339468 0.986075,1.00224 v 0.210152 c -1.293213,0.01613 -2.392442,0.193979 -3.2815276,0.501119 -1.4386978,0.501121 -2.1499651,1.374039 -2.1499651,2.618756 0,1.632681 1.1800557,2.554097 2.8127366,2.554097 1.1477271,0 2.0368101,-0.40413 2.6349211,-1.228554 0.03233,0.420295 0.06465,0.727432 0.113152,0.921414 z"
       style="font-style:normal;font-variant:normal;font-weight:900;font-stretch:normal;font-size:7.51595px;line-height:0.95;font-family:Volkart;-inkscape-font-specification:'Volkart, Heavy';font-variant-ligatures:normal;font-variant-caps:normal;font-variant-numeric:normal;font-variant-east-asian:normal;letter-spacing:0px;word-spacing:0px;fill:#000080;stroke-width:0.100393"
       id="path834" />
    <path
       d="m 21.170545,34.732418 c -0.824422,0 -1.228552,-0.727433 -1.228552,-2.182299 0,-1.471027 0.40413,-2.19846 1.228552,-2.19846 0.824425,0 1.244717,0.727433 1.244717,2.19846 0,1.454866 -0.420292,2.182299 -1.244717,2.182299 z m 4.380759,2.19846 V 25.291965 h -3.136042 v 3.620994 C 21.897978,28.201694 21.21904,27.84606 20.362288,27.84606 c -1.115397,0 -1.988315,0.420293 -2.651086,1.244717 -0.662772,0.824422 -0.986075,1.988315 -0.986075,3.459342 0,1.4387 0.323303,2.570261 0.986075,3.427015 0.662771,0.840587 1.535689,1.260882 2.651086,1.260882 0.840587,0 1.519524,-0.371799 2.052974,-1.115396 v 0.808258 z"
       style="font-style:normal;font-variant:normal;font-weight:900;font-stretch:normal;font-size:7.51595px;line-height:0.95;font-family:Volkart;-inkscape-font-specification:'Volkart, Heavy';font-variant-ligatures:normal;font-variant-caps:normal;font-variant-numeric:normal;font-variant-east-asian:normal;letter-spacing:0px;word-spacing:0px;fill:#000080;stroke-width:0.100393"
       id="path836" />
    <path
       d="m 29.980539,31.98434 c 0,-1.034571 0.404129,-1.632681 1.03457,-1.632681 0.56578,0 0.84059,0.452625 0.84059,1.374038 v 5.205181 h 3.136039 V 31.98434 c 0,-1.034571 0.40413,-1.632681 1.034571,-1.632681 0.56578,0 0.840587,0.452625 0.840587,1.374038 v 5.205181 h 3.13604 v -5.835622 c 0,-2.149967 -1.196221,-3.249196 -2.828902,-3.249196 -1.13156,0 -1.988314,0.468789 -2.57026,1.390202 -0.452625,-0.921413 -1.212386,-1.390202 -2.295452,-1.390202 -1.034571,0 -1.810497,0.484953 -2.327783,1.438697 v -1.131559 h -3.13604 v 8.77768 h 3.13604 z"
       style="font-style:normal;font-variant:normal;font-weight:900;font-stretch:normal;font-size:7.51595px;line-height:0.95;font-family:Volkart;-inkscape-font-specification:'Volkart, Heavy';font-variant-ligatures:normal;font-variant-caps:normal;font-variant-numeric:normal;font-variant-east-asian:normal;letter-spacing:0px;word-spacing:0px;fill:#000080;stroke-width:0.100393"
       id="path838" />
    <path
       d="m 46.485153,37.238016 c 1.115394,0 1.988312,-0.420295 2.651084,-1.244716 0.662772,-0.824424 0.986075,-1.988315 0.986075,-3.459346 0,-1.438698 -0.323303,-2.570259 -0.986075,-3.410847 -0.662772,-0.856754 -1.53569,-1.277047 -2.651084,-1.277047 -0.84059,0 -1.519526,0.371799 -2.052976,1.115394 v -3.669489 h -3.136039 v 11.638913 h 3.136039 v -0.759762 c 0.517285,0.711266 1.196222,1.0669 2.052976,1.0669 z m -0.808259,-6.886357 c 0.824423,0 1.228552,0.727433 1.228552,2.182295 0,1.471031 -0.404129,2.198464 -1.228552,2.198464 -0.824422,0 -1.244717,-0.727433 -1.244717,-2.198464 0,-1.454862 0.420295,-2.182295 1.244717,-2.182295 z"
       style="font-style:normal;font-variant:normal;font-weight:900;font-stretch:normal;font-size:7.51595px;line-height:0.95;font-family:Volkart;-inkscape-font-specification:'Volkart, Heavy';font-variant-ligatures:normal;font-variant-caps:normal;font-variant-numeric:normal;font-variant-east-asian:normal;letter-spacing:0px;word-spacing:0px;fill:#ff0000;stroke-width:0.100393"
       id="path840" />
    <path
       d="m 55.262818,37.238016 c 1.374037,0 2.457104,-0.420295 3.26536,-1.244716 0.824424,-0.824424 1.228553,-1.97215 1.228553,-3.443181 0,-1.438698 -0.404129,-2.586424 -1.212388,-3.427012 -0.808256,-0.856754 -1.907488,-1.277047 -3.281525,-1.277047 -1.374039,0 -2.457104,0.420293 -3.281527,1.244717 -0.808259,0.824422 -1.212388,1.988315 -1.212388,3.459342 0,1.4387 0.404129,2.570261 1.212388,3.427015 0.808258,0.840587 1.907488,1.260882 3.281527,1.260882 z m 1.277047,-4.687897 c 0,1.454866 -0.420294,2.182299 -1.277047,2.182299 -0.856754,0 -1.277049,-0.727433 -1.277049,-2.182299 0,-1.471027 0.420295,-2.19846 1.277049,-2.19846 0.856753,0 1.277047,0.727433 1.277047,2.19846 z"
       style="font-style:normal;font-variant:normal;font-weight:900;font-stretch:normal;font-size:7.51595px;line-height:0.95;font-family:Volkart;-inkscape-font-specification:'Volkart, Heavy';font-variant-ligatures:normal;font-variant-caps:normal;font-variant-numeric:normal;font-variant-east-asian:normal;letter-spacing:0px;word-spacing:0px;fill:#ff0000;stroke-width:0.100393"
       id="path842" />
    <path
       d="m 64.379943,35.217371 c -0.533449,0 -0.856752,-0.307138 -0.856752,-0.775929 0,-0.75976 0.775926,-1.180055 2.311618,-1.228551 v 0.307138 c 0,0.986075 -0.662771,1.697342 -1.454866,1.697342 z m 4.801052,1.713507 c -0.145479,-0.630441 -0.210152,-1.357873 -0.210152,-2.214626 v -3.313857 c 0,-1.050736 -0.355635,-1.891323 -1.066902,-2.554095 -0.695102,-0.662771 -1.681176,-1.00224 -2.942059,-1.00224 -1.16389,0 -2.133799,0.290973 -2.893563,0.872918 -0.759761,0.581945 -1.212386,1.374039 -1.341708,2.360114 h 3.136042 c 0.09698,-0.484956 0.420293,-0.727433 0.986074,-0.727433 0.662772,0 0.986075,0.339468 0.986075,1.00224 v 0.210152 c -1.293212,0.01613 -2.392444,0.193979 -3.281527,0.501119 -1.438699,0.501121 -2.149967,1.374039 -2.149967,2.618756 0,1.632681 1.180058,2.554097 2.812739,2.554097 1.147725,0 2.036808,-0.40413 2.63492,-1.228554 0.03233,0.420295 0.06465,0.727432 0.113153,0.921414 z"
       style="font-style:normal;font-variant:normal;font-weight:900;font-stretch:normal;font-size:7.51595px;line-height:0.95;font-family:Volkart;-inkscape-font-specification:'Volkart, Heavy';font-variant-ligatures:normal;font-variant-caps:normal;font-variant-numeric:normal;font-variant-east-asian:normal;letter-spacing:0px;word-spacing:0px;fill:#ff0000;stroke-width:0.100393"
       id="path844" />
    <path
       d="M 75.614706,34.554599 H 75.03276 c -0.889083,0 -1.13156,-0.387964 -1.13156,-1.180055 v -2.861232 h 1.713506 V 28.153198 H 73.9012 v -2.036811 h -3.136042 v 2.036811 h -0.969909 v 2.360114 h 0.969909 v 3.362351 c 0,2.182295 1.00224,3.362353 3.006721,3.362353 0.775928,0 1.390204,-0.097 1.842827,-0.307138 z"
       style="font-style:normal;font-variant:normal;font-weight:900;font-stretch:normal;font-size:7.51595px;line-height:0.95;font-family:Volkart;-inkscape-font-specification:'Volkart, Heavy';font-variant-ligatures:normal;font-variant-caps:normal;font-variant-numeric:normal;font-variant-east-asian:normal;letter-spacing:0px;word-spacing:0px;fill:#ff0000;stroke-width:0.100393"
       id="path846" />
    <path
       d="m 79.720636,36.930878 v -3.136041 h -3.136043 v 3.136041 z"
       style="font-style:normal;font-variant:normal;font-weight:900;font-stretch:normal;font-size:7.51595px;line-height:0.95;font-family:Volkart;-inkscape-font-specification:'Volkart, Heavy';font-variant-ligatures:normal;font-variant-caps:normal;font-variant-numeric:normal;font-variant-east-asian:normal;letter-spacing:0px;word-spacing:0px;fill:#ff0000;stroke-width:0.100393"
       id="path848" />
    <path
       d="m 89.031733,31.402395 c -0.307138,-2.311618 -1.907488,-3.556335 -4.089784,-3.556335 -1.341709,0 -2.424774,0.420293 -3.216869,1.244717 -0.792091,0.824422 -1.19622,1.988315 -1.19622,3.459342 0,1.4387 0.404129,2.570261 1.19622,3.427015 0.792095,0.840587 1.87516,1.260882 3.233032,1.260882 2.182298,0 3.750318,-1.212386 4.122116,-3.362353 h -3.136041 c -0.129326,0.565779 -0.436458,0.856755 -0.921414,0.856755 -0.856752,0 -1.277047,-0.727433 -1.277047,-2.182299 0,-1.471027 0.404129,-2.19846 1.196223,-2.19846 0.533449,0 0.856753,0.355633 0.953744,1.050736 z"
       style="font-style:normal;font-variant:normal;font-weight:900;font-stretch:normal;font-size:7.51595px;line-height:0.95;font-family:Volkart;-inkscape-font-specification:'Volkart, Heavy';font-variant-ligatures:normal;font-variant-caps:normal;font-variant-numeric:normal;font-variant-east-asian:normal;letter-spacing:0px;word-spacing:0px;fill:#ff0000;stroke-width:0.100393"
       id="path850" />
    <path
       d="m 94.172247,37.238016 c 1.374038,0 2.457102,-0.420295 3.265361,-1.244716 0.824422,-0.824424 1.228552,-1.97215 1.228552,-3.443181 0,-1.438698 -0.40413,-2.586424 -1.212386,-3.427012 -0.80826,-0.856754 -1.907489,-1.277047 -3.281527,-1.277047 -1.374039,0 -2.457106,0.420293 -3.281528,1.244717 -0.808258,0.824422 -1.212387,1.988315 -1.212387,3.459342 0,1.4387 0.404129,2.570261 1.212387,3.427015 0.808257,0.840587 1.907489,1.260882 3.281528,1.260882 z m 1.277047,-4.687897 c 0,1.454866 -0.420295,2.182299 -1.277047,2.182299 -0.856755,0 -1.277049,-0.727433 -1.277049,-2.182299 0,-1.471027 0.420294,-2.19846 1.277049,-2.19846 0.856752,0 1.277047,0.727433 1.277047,2.19846 z"
       style="font-style:normal;font-variant:normal;font-weight:900;font-stretch:normal;font-size:7.51595px;line-height:0.95;font-family:Volkart;-inkscape-font-specification:'Volkart, Heavy';font-variant-ligatures:normal;font-variant-caps:normal;font-variant-numeric:normal;font-variant-east-asian:normal;letter-spacing:0px;word-spacing:0px;fill:#ff0000;stroke-width:0.100393"
       id="path852" />
    <path
       d="m 102.77209,31.98434 c 0,-1.034571 0.40414,-1.632681 1.03458,-1.632681 0.56578,0 0.84059,0.452625 0.84059,1.374038 v 5.205181 h 3.13604 V 31.98434 c 0,-1.034571 0.40413,-1.632681 1.03457,-1.632681 0.56578,0 0.84058,0.452625 0.84058,1.374038 v 5.205181 h 3.13605 v -5.835622 c 0,-2.149967 -1.19622,-3.249196 -2.8289,-3.249196 -1.13157,0 -1.98832,0.468789 -2.57026,1.390202 -0.45263,-0.921413 -1.2124,-1.390202 -2.29546,-1.390202 -1.03457,0 -1.8105,0.484953 -2.32779,1.438697 v -1.131559 h -3.136034 v 8.77768 h 3.136034 z"
       style="font-style:normal;font-variant:normal;font-weight:900;font-stretch:normal;font-size:7.51595px;line-height:0.95;font-family:Volkart;-inkscape-font-specification:'Volkart, Heavy';font-variant-ligatures:normal;font-variant-caps:normal;font-variant-numeric:normal;font-variant-east-asian:normal;letter-spacing:0px;word-spacing:0px;fill:#ff0000;stroke-width:0.100393"
       id="path854" />
  </g>
</svg>
