<?xml version="1.0" encoding="UTF-8" standalone="no"?>
<svg
   xmlns:dc="http://purl.org/dc/elements/1.1/"
   xmlns:cc="http://creativecommons.org/ns#"
   xmlns:rdf="http://www.w3.org/1999/02/22-rdf-syntax-ns#"
   xmlns:svg="http://www.w3.org/2000/svg"
   xmlns="http://www.w3.org/2000/svg"
   xmlns:sodipodi="http://sodipodi.sourceforge.net/DTD/sodipodi-0.dtd"
   xmlns:inkscape="http://www.inkscape.org/namespaces/inkscape"
   sodipodi:docname="banner6.svg"
   inkscape:version="1.0 (4035a4fb49, 2020-05-01)"
   id="svg25396"
   version="1.1"
   viewBox="0 0 317.5 132.29167"
   height="500"
   width="1200">
  <defs
     id="defs25390" />
  <sodipodi:namedview
     inkscape:window-maximized="1"
     inkscape:window-y="0"
     inkscape:window-x="50"
     inkscape:window-height="744"
     inkscape:window-width="1316"
     units="px"
     showgrid="false"
     inkscape:document-rotation="0"
     inkscape:current-layer="layer1"
     inkscape:document-units="mm"
     inkscape:cy="560"
     inkscape:cx="400"
     inkscape:zoom="0.33592965"
     inkscape:pageshadow="2"
     inkscape:pageopacity="0.0"
     borderopacity="1.0"
     bordercolor="#666666"
     pagecolor="#ffffff"
     id="base" />
  <metadata
     id="metadata25393">
    <rdf:RDF>
      <cc:Work
         rdf:about="">
        <dc:format>image/svg+xml</dc:format>
        <dc:type
           rdf:resource="http://purl.org/dc/dcmitype/StillImage" />
        <dc:title></dc:title>
      </cc:Work>
    </rdf:RDF>
  </metadata>
  <g
     id="layer1"
     inkscape:groupmode="layer"
     inkscape:label="Layer 1">
    <rect
       ry="1.0023068"
       y="-4.0690298"
       x="-1.1798847"
       height="140.30537"
       width="322.64594"
       id="rect25398"
       style="fill:#ffffff;fill-rule:evenodd;stroke-width:0.281729" />
    <path
       id="path8468"
       fill="#1d1d1b"
       d="m 300.1086,9.0374295 h -9.64139 c -0.0918,0 -0.16997,0.0425 -0.25837,0.05202 -0.18357,0.0204 -0.35764,0.04964 -0.53102,0.107426 -0.14618,0.04794 -0.27538,0.10709 -0.40793,0.178824 -0.15301,0.08261 -0.28898,0.172704 -0.42193,0.284549 -0.12237,0.10233 -0.22437,0.211796 -0.32637,0.334523 -0.10538,0.1268075 -0.19375,0.2559955 -0.27194,0.4027575 -0.0816,0.150945 -0.1394,0.305631 -0.19039,0.472893 -0.034,0.09077 -0.085,0.163523 -0.102,0.258709 l -1.45978,7.980143 -62.396,3.646352 c -0.23797,-0.01699 -0.45011,0.01699 -0.71732,0.04317 -1.38603,0.12613 -2.4151,1.341297 -2.31243,2.729029 0,0.104709 0.034,0.206018 0.0408,0.305289 l 4.3478,23.71117 c 0.99406,3.67688 4.05679,7.388572 8.6633,7.388572 h 45.45183 l -0.9733,5.318601 h -38.24528 c -4.84211,0 -8.78297,3.940762 -8.78297,8.782939 0,4.843838 3.94086,8.784635 8.78297,8.784635 4.8421,0 8.78295,-3.940797 8.78295,-8.784635 0,-1.319469 -0.31274,-2.559487 -0.83732,-3.683479 h 23.48504 c -0.52387,1.123992 -0.83732,2.36401 -0.83732,3.683479 0,4.843838 3.94089,8.784635 8.78297,8.784635 4.84214,0 8.78298,-3.940797 8.78298,-8.784635 0,-3.442989 -2.01054,-6.399858 -4.90262,-7.838824 l 8.97675,-49.058676 h 7.51589 c 1.40745,0 2.54976,-1.14204 2.54976,-2.549731 0,-1.407655 -1.14231,-2.5497325 -2.54976,-2.5497325 z m -17.77299,32.8234255 -10.80471,0.169643 0.58848,-6.261867 11.39354,-0.341526 z m -53.97879,-4.780132 10.79691,-0.323649 0.70645,5.770722 -10.47599,0.164544 z m 14.20777,-0.425976 11.86779,-0.355637 v 5.999789 l -11.15522,0.175419 z m 11.86779,-3.758403 -12.28254,0.368319 -0.78498,-6.409615 13.06752,-0.764002 z m 3.39965,-7.004075 11.86578,-0.693867 -0.68231,7.260747 -11.18347,0.335206 z m -3.39965,19.807084 v 6.13404 h -10.0092 l -0.73059,-5.965349 z m 3.39965,-0.05337 9.9589,-0.156382 -0.59594,6.343626 h -9.36296 z m 0,-3.400457 v -6.048371 l 10.86288,-0.325683 -0.58404,6.212702 z m 26.30674,-10.239781 -11.69884,0.35067 0.69117,-7.35869 12.42332,-0.726469 z m -46.17321,-4.951955 0.77308,6.312928 -11.00158,0.329766 c -0.46371,-2.51859 -0.83291,-4.475934 -1.14738,-5.977793 z m -7.53292,21.366668 -0.42802,-2.337488 10.27133,-0.161142 0.72345,5.911599 h -6.8734 c -2.1846,0 -3.40133,-2.367137 -3.69336,-3.412897 z m 40.17695,3.4129 0.60106,-6.397342 10.50078,-0.16488 -1.20073,6.562323 h -9.90111 z m -26.56683,19.200998 c 0,2.031831 -1.65189,3.685177 -3.68351,3.685177 -2.03197,0 -3.68351,-1.653346 -3.68351,-3.685177 0,-2.031794 1.65154,-3.683476 3.68351,-3.683476 2.03162,0 3.68351,1.651682 3.68351,3.683476 z m 35.69284,3.685177 c -2.03166,0 -3.68355,-1.653346 -3.68355,-3.685177 0,-2.031794 1.65189,-3.683476 3.68355,-3.683476 2.03195,0 3.68348,1.651682 3.68348,3.683476 0,2.031831 -1.65153,3.685177 -3.68348,3.685177 z"
       style="fill:#ff0000;stroke-width:3.39966" />
  </g>
</svg>
