<?xml version="1.0" encoding="UTF-8" standalone="no"?>
<svg
   xmlns:dc="http://purl.org/dc/elements/1.1/"
   xmlns:cc="http://creativecommons.org/ns#"
   xmlns:rdf="http://www.w3.org/1999/02/22-rdf-syntax-ns#"
   xmlns:svg="http://www.w3.org/2000/svg"
   xmlns="http://www.w3.org/2000/svg"
   xmlns:sodipodi="http://sodipodi.sourceforge.net/DTD/sodipodi-0.dtd"
   xmlns:inkscape="http://www.inkscape.org/namespaces/inkscape"
   inkscape:version="1.0 (4035a4fb49, 2020-05-01)"
   sodipodi:docname="banner4.svg"
   viewBox="0 0 1200 500"
   height="500"
   width="1200"
   id="svg2"
   version="1.1">
  <metadata
     id="metadata8">
    <rdf:RDF>
      <cc:Work
         rdf:about="">
        <dc:format>image/svg+xml</dc:format>
        <dc:type
           rdf:resource="http://purl.org/dc/dcmitype/StillImage" />
        <dc:title />
      </cc:Work>
    </rdf:RDF>
  </metadata>
  <defs
     id="defs6" />
  <sodipodi:namedview
     showguides="false"
     inkscape:current-layer="g10"
     inkscape:window-maximized="1"
     inkscape:window-y="0"
     inkscape:window-x="50"
     inkscape:cy="194.86211"
     inkscape:cx="834.7461"
     inkscape:zoom="1.2883791"
     showgrid="false"
     id="namedview4"
     inkscape:window-height="744"
     inkscape:window-width="1316"
     inkscape:pageshadow="2"
     inkscape:pageopacity="0"
     guidetolerance="10"
     gridtolerance="10"
     objecttolerance="10"
     borderopacity="1"
     bordercolor="#666666"
     pagecolor="#ffffff"
     inkscape:document-rotation="0" />
  <g
     id="g10"
     inkscape:label="Image"
     inkscape:groupmode="layer">
    <rect
       ry="2.9724712"
       y="-9.6515341"
       x="-0.17291474"
       height="518.07953"
       width="1209.0216"
       id="rect17058"
       style="fill:#ffffff;fill-rule:evenodd;stroke-width:1.56899" />
    <g
       id="g35"
       transform="translate(601.45226,86.884059)">
      <path
         id="path9"
         d="m 115.75,47.18 c 0,12.77 -9.99,22.18 -22.25,22.18 C 81.24,69.36 71.25,59.95 71.25,47.18 71.25,34.32 81.24,25 93.5,25 c 12.26,0 22.25,9.32 22.25,22.18 z m -9.74,0 c 0,-7.98 -5.79,-13.44 -12.51,-13.44 -6.72,0 -12.51,5.46 -12.51,13.44 0,7.9 5.79,13.44 12.51,13.44 6.72,0 12.51,-5.55 12.51,-13.44 z"
         fill="#ea4335" />
      <path
         id="path11"
         d="m 163.75,47.18 c 0,12.77 -9.99,22.18 -22.25,22.18 -12.26,0 -22.25,-9.41 -22.25,-22.18 0,-12.85 9.99,-22.18 22.25,-22.18 12.26,0 22.25,9.32 22.25,22.18 z m -9.74,0 c 0,-7.98 -5.79,-13.44 -12.51,-13.44 -6.72,0 -12.51,5.46 -12.51,13.44 0,7.9 5.79,13.44 12.51,13.44 6.72,0 12.51,-5.55 12.51,-13.44 z"
         fill="#fbbc05" />
      <path
         id="path13"
         d="m 209.75,26.34 v 39.82 c 0,16.38 -9.66,23.07 -21.08,23.07 -10.75,0 -17.22,-7.19 -19.66,-13.07 l 8.48,-3.53 c 1.51,3.61 5.21,7.87 11.17,7.87 7.31,0 11.84,-4.51 11.84,-13 v -3.19 h -0.34 c -2.18,2.69 -6.38,5.04 -11.68,5.04 -11.09,0 -21.25,-9.66 -21.25,-22.09 0,-12.52 10.16,-22.26 21.25,-22.26 5.29,0 9.49,2.35 11.68,4.96 h 0.34 v -3.61 h 9.25 z m -8.56,20.92 c 0,-7.81 -5.21,-13.52 -11.84,-13.52 -6.72,0 -12.35,5.71 -12.35,13.52 0,7.73 5.63,13.36 12.35,13.36 6.63,0 11.84,-5.63 11.84,-13.36 z"
         fill="#4285f4" />
      <path
         id="path15"
         d="m 225,3 v 65 h -9.5 V 3 Z"
         fill="#34a853" />
      <path
         id="path17"
         d="m 262.02,54.48 7.56,5.04 c -2.44,3.61 -8.32,9.83 -18.48,9.83 -12.6,0 -22.01,-9.74 -22.01,-22.18 0,-13.19 9.49,-22.18 20.92,-22.18 11.51,0 17.14,9.16 18.98,14.11 L 270,41.62 240.35,53.9 c 2.27,4.45 5.8,6.72 10.75,6.72 4.96,0 8.4,-2.44 10.92,-6.14 z m -23.27,-7.98 19.82,-8.23 c -1.09,-2.77 -4.37,-4.7 -8.23,-4.7 -4.95,0 -11.84,4.37 -11.59,12.93 z"
         fill="#ea4335" />
      <path
         id="path19"
         d="M 35.29,41.41 V 32 H 67 c 0.31,1.64 0.47,3.58 0.47,5.68 0,7.06 -1.93,15.79 -8.15,22.01 -6.05,6.3 -13.78,9.66 -24.02,9.66 C 16.32,69.35 0.36,53.89 0.36,34.91 0.36,15.93 16.32,0.47 35.3,0.47 c 10.5,0 17.98,4.12 23.6,9.49 L 52.26,16.6 C 48.23,12.82 42.77,9.88 35.29,9.88 c -13.86,0 -24.7,11.17 -24.7,25.03 0,13.86 10.84,25.03 24.7,25.03 8.99,0 14.11,-3.61 17.39,-6.89 2.66,-2.66 4.41,-6.46 5.1,-11.65 z"
         fill="#4285f4" />
    </g>
    <g
       id="g66"
       transform="matrix(0.08997301,0,0,0.08997301,668.55476,203.98835)">
      <path
         id="path37"
         fill="#16366f"
         d="m 40,0 h 700 c 22.092,0 40,17.909 40,40 v 420 c 0,22.092 -17.908,40 -40,40 H 40 C 17.909,500 0,482.092 0,460 V 40 C 0,17.909 17.909,0 40,0 Z" />
      <path
         id="path39"
         fill="#d9222a"
         d="m 449.01,250 c 0,99.143 -80.37,179.5 -179.51,179.5 C 170.36,429.5 90,349.139 90,250 90,150.867 170.362,70.5 269.5,70.5 c 99.137,0 179.51,80.37 179.51,179.5" />
      <path
         id="path41"
         fill="#ee9f2d"
         d="m 510.49,70.496 c -46.38,0 -88.643,17.596 -120.5,46.466 -6.49,5.889 -12.548,12.237 -18.125,18.996 h 36.266 c 4.966,6.037 9.536,12.388 13.685,19.013 h -63.635 c -3.827,6.121 -7.28,12.469 -10.341,19.008 h 84.312 c 2.893,6.185 5.431,12.53 7.6,19.004 H 340.24 c -2.091,6.235 -3.832,12.581 -5.217,19.009 h 109.94 c 2.689,12.49 4.044,25.231 4.041,38.008 0,19.934 -3.254,39.113 -9.254,57.02 h -99.512 c 2.164,6.479 4.7,12.825 7.595,19.01 h 84.317 c -3.064,6.54 -6.52,12.889 -10.347,19.013 h -63.625 c 4.154,6.629 8.73,12.979 13.685,18.996 h 36.258 c -5.57,6.772 -11.63,13.126 -18.13,19.012 31.86,28.867 74.118,46.454 120.5,46.454 99.138,-10e-4 179.51,-80.362 179.51,-179.5 0,-99.13 -80.37,-179.5 -179.51,-179.5" />
      <path
         id="path43"
         d="m 666.08,350.06 c 0,-3.201 2.592,-5.801 5.796,-5.801 3.204,0 5.796,2.6 5.796,5.801 0,3.199 -2.592,5.799 -5.796,5.799 -3.202,-10e-4 -5.797,-2.598 -5.796,-5.799 z m 5.796,4.408 c 2.435,-0.001 4.407,-1.975 4.408,-4.408 0,-2.433 -1.972,-4.404 -4.404,-4.404 h -0.004 c -2.429,-0.004 -4.4,1.963 -4.404,4.392 v 0.013 c -0.003,2.432 1.967,4.406 4.399,4.408 10e-4,-10e-4 0.003,-10e-4 0.005,-10e-4 z m -0.783,-1.86 h -1.188 v -5.094 h 2.149 c 0.45,0 0.908,0 1.305,0.254 0.413,0.278 0.646,0.77 0.646,1.278 0,0.57 -0.337,1.104 -0.883,1.312 l 0.937,2.25 h -1.315 l -0.78,-2.016 h -0.87 v 2.016 z m 0,-2.89 h 0.658 c 0.246,0 0.504,0.02 0.725,-0.1 0.196,-0.125 0.296,-0.359 0.296,-0.584 0,-0.195 -0.12,-0.42 -0.288,-0.516 -0.207,-0.131 -0.536,-0.101 -0.758,-0.101 h -0.633 z m -443.5,-80.063 c -2.045,-0.237 -2.945,-0.301 -4.35,-0.301 -11.045,0 -16.637,3.789 -16.637,11.268 0,4.611 2.73,7.546 6.987,7.546 7.938,0 13.659,-7.56 14,-18.513 z m 14.171,32.996 h -16.146 l 0.371,-7.676 c -4.925,6.067 -11.496,8.95 -20.425,8.95 -10.562,0 -17.804,-8.25 -17.804,-20.229 0,-18.024 12.596,-28.54 34.217,-28.54 2.208,0 5.041,0.2 7.941,0.569 0.605,-2.441 0.763,-3.486 0.763,-4.8 0,-4.908 -3.396,-6.738 -12.5,-6.738 -9.533,-0.108 -17.396,2.271 -20.625,3.334 0.204,-1.23 2.7,-16.658 2.7,-16.658 9.712,-2.846 16.117,-3.917 23.325,-3.917 16.733,0 25.596,7.512 25.58,21.712 0.032,3.805 -0.597,8.5 -1.58,14.671 -1.692,10.731 -5.32,33.718 -5.817,39.322 z m -62.158,0 h -19.488 l 11.163,-69.997 -24.925,69.997 h -13.28 l -1.64,-69.597 -11.734,69.597 H 101.46 l 15.238,-91.054 h 28.02 l 1.7,50.966 17.092,-50.966 h 31.167 l -15.071,91.054 m 354.98,-32.996 c -2.037,-0.237 -2.942,-0.301 -4.342,-0.301 -11.041,0 -16.634,3.789 -16.634,11.268 0,4.611 2.726,7.546 6.983,7.546 7.939,0 13.664,-7.56 13.993,-18.513 z m 14.183,32.996 h -16.145 l 0.365,-7.676 c -4.925,6.067 -11.5,8.95 -20.42,8.95 -10.566,0 -17.8,-8.25 -17.8,-20.229 0,-18.024 12.587,-28.54 34.212,-28.54 2.208,0 5.037,0.2 7.934,0.569 0.604,-2.441 0.763,-3.486 0.763,-4.8 0,-4.908 -3.392,-6.738 -12.496,-6.738 -9.533,-0.108 -17.388,2.271 -20.63,3.334 0.205,-1.23 2.709,-16.658 2.709,-16.658 9.713,-2.846 16.113,-3.917 23.312,-3.917 16.741,0 25.604,7.512 25.588,21.712 0.032,3.805 -0.597,8.5 -1.58,14.671 -1.682,10.731 -5.32,33.718 -5.812,39.322 z m -220.39,-1.125 c -5.334,1.68 -9.492,2.399 -14,2.399 -9.963,0 -15.4,-5.725 -15.4,-16.267 -0.142,-3.27 1.433,-11.879 2.67,-19.737 1.125,-6.917 8.45,-50.53 8.45,-50.53 h 19.371 l -2.262,11.209 h 11.7 l -2.643,17.796 h -11.742 c -2.25,14.083 -5.454,31.625 -5.491,33.95 0,3.817 2.037,5.483 6.67,5.483 2.221,0 3.941,-0.226 5.255,-0.7 l -2.578,16.397 m 59.391,-0.6 c -6.654,2.033 -13.075,3.017 -19.879,3 -21.683,-0.021 -32.987,-11.346 -32.987,-33.032 0,-25.313 14.38,-43.947 33.9,-43.947 15.97,0 26.17,10.433 26.17,26.796 0,5.429 -0.7,10.729 -2.387,18.212 h -38.575 c -1.304,10.742 5.57,15.217 16.837,15.217 6.935,0 13.188,-1.43 20.142,-4.663 z m -10.887,-43.9 c 0.107,-1.543 2.054,-13.217 -9.013,-13.217 -6.171,0 -10.583,4.704 -12.38,13.217 z m -123.42,-5.017 c 0,9.367 4.541,15.825 14.841,20.676 7.892,3.709 9.113,4.809 9.113,8.17 0,4.617 -3.48,6.7 -11.192,6.7 -5.812,0 -11.22,-0.907 -17.458,-2.92 0,0 -2.563,16.32 -2.68,17.101 4.43,0.966 8.38,1.861 20.28,2.19 20.562,0 30.058,-7.829 30.058,-24.75 0,-10.175 -3.975,-16.146 -13.737,-20.633 -8.171,-3.75 -9.109,-4.588 -9.109,-8.046 0,-4.004 3.238,-6.046 9.538,-6.046 3.825,0 9.05,0.408 14,1.113 l 2.775,-17.175 c -5.046,-0.8 -12.696,-1.442 -17.15,-1.442 -21.8,0 -29.346,11.387 -29.279,25.062 m 229.09,-23.116 c 5.413,0 10.459,1.42 17.413,4.92 l 3.187,-19.762 c -2.854,-1.12 -12.904,-7.7 -21.416,-7.7 -13.042,0 -24.066,6.47 -31.82,17.15 -11.31,-3.746 -15.959,3.825 -21.659,11.367 l -5.062,1.179 c 0.383,-2.483 0.73,-4.95 0.613,-7.446 h -17.896 c -2.445,22.917 -6.779,46.13 -10.171,69.075 l -0.884,4.976 h 19.496 c 3.254,-21.143 5.038,-34.681 6.121,-43.842 l 7.342,-4.084 c 1.096,-4.08 4.529,-5.458 11.416,-5.292 -0.926,5.008 -1.389,10.09 -1.383,15.184 0,24.225 13.071,39.308 34.05,39.308 5.404,0 10.042,-0.712 17.221,-2.657 l 3.431,-20.76 c -6.46,3.18 -11.761,4.676 -16.561,4.676 -11.328,0 -18.183,-8.362 -18.183,-22.184 -10e-4,-20.05 10.195,-34.108 24.745,-34.108" />
      <path
         id="path45"
         fill="#ffffff"
         d="m 185.21,297.24 h -19.491 l 11.17,-69.988 -24.925,69.988 h -13.282 l -1.642,-69.588 -11.733,69.588 h -18.243 l 15.238,-91.042 h 28.02 l 0.788,56.362 18.904,-56.362 h 30.267 L 185.21,297.24" />
      <path
         id="path47"
         d="m 647.52,211.6 -4.319,26.308 c -5.33,-7.012 -11.054,-12.087 -18.612,-12.087 -9.834,0 -18.784,7.454 -24.642,18.425 -8.158,-1.692 -16.597,-4.563 -16.597,-4.563 l -0.004,0.067 c 0.658,-6.133 0.92,-9.875 0.862,-11.146 h -17.9 c -2.437,22.917 -6.77,46.13 -10.157,69.075 l -0.893,4.976 h 19.492 c 2.633,-17.097 4.65,-31.293 6.133,-42.551 6.659,-6.017 9.992,-11.267 16.721,-10.917 -2.979,7.206 -4.725,15.504 -4.725,24.017 0,18.513 9.367,30.725 23.534,30.725 7.141,0 12.62,-2.462 17.966,-8.17 l -0.912,6.884 H 651.9 L 666.742,211.6 Z m -24.37,73.942 c -6.634,0 -9.983,-4.909 -9.983,-14.597 0,-14.553 6.271,-24.875 15.112,-24.875 6.695,0 10.32,5.104 10.32,14.508 10e-4,14.681 -6.369,24.964 -15.449,24.964 z" />
      <path
         id="path49"
         fill="#ffffff"
         d="m 233.19,264.26 c -2.042,-0.236 -2.946,-0.3 -4.346,-0.3 -11.046,0 -16.634,3.788 -16.634,11.267 0,4.604 2.73,7.547 6.98,7.547 7.945,-10e-4 13.666,-7.559 14,-18.514 z m 14.179,32.984 h -16.146 l 0.367,-7.663 c -4.921,6.054 -11.5,8.95 -20.421,8.95 -10.567,0 -17.804,-8.25 -17.804,-20.229 0,-18.032 12.591,-28.542 34.216,-28.542 2.209,0 5.042,0.2 7.938,0.571 0.604,-2.442 0.762,-3.487 0.762,-4.808 0,-4.908 -3.391,-6.73 -12.496,-6.73 -9.537,-0.108 -17.395,2.272 -20.629,3.322 0.204,-1.226 2.7,-16.638 2.7,-16.638 9.709,-2.858 16.121,-3.93 23.321,-3.93 16.738,0 25.604,7.518 25.588,21.705 0.029,3.82 -0.605,8.512 -1.584,14.675 -1.687,10.725 -5.32,33.725 -5.812,39.317 z m 261.38,-88.592 -3.192,19.767 c -6.95,-3.496 -12,-4.921 -17.407,-4.921 -14.551,0 -24.75,14.058 -24.75,34.107 0,13.821 6.857,22.181 18.183,22.181 4.8,0 10.096,-1.492 16.554,-4.677 l -3.42,20.75 c -7.184,1.959 -11.816,2.672 -17.226,2.672 -20.976,0 -34.05,-15.084 -34.05,-39.309 0,-32.55 18.059,-55.3 43.888,-55.3 8.507,0.001 18.562,3.609 21.42,4.73 m 31.442,55.608 c -2.041,-0.236 -2.941,-0.3 -4.346,-0.3 -11.042,0 -16.634,3.788 -16.634,11.267 0,4.604 2.729,7.547 6.984,7.547 7.937,-10e-4 13.662,-7.559 13.996,-18.514 z m 14.179,32.984 h -16.15 l 0.37,-7.663 c -4.924,6.054 -11.5,8.95 -20.42,8.95 -10.563,0 -17.804,-8.25 -17.804,-20.229 0,-18.032 12.595,-28.542 34.212,-28.542 2.213,0 5.042,0.2 7.941,0.571 0.601,-2.442 0.763,-3.487 0.763,-4.808 0,-4.908 -3.392,-6.73 -12.496,-6.73 -9.533,-0.108 -17.396,2.272 -20.629,3.322 0.204,-1.226 2.704,-16.638 2.704,-16.638 9.709,-2.858 16.116,-3.93 23.316,-3.93 16.742,0 25.604,7.518 25.583,21.705 0.034,3.82 -0.595,8.512 -1.579,14.675 -1.682,10.725 -5.324,33.725 -5.811,39.317 z m -220.39,-1.122 c -5.338,1.68 -9.496,2.409 -14,2.409 -9.963,0 -15.4,-5.726 -15.4,-16.266 -0.138,-3.281 1.437,-11.881 2.675,-19.738 1.12,-6.926 8.446,-50.533 8.446,-50.533 h 19.367 l -2.259,11.212 h 9.942 l -2.646,17.788 h -9.975 c -2.25,14.091 -5.463,31.619 -5.496,33.949 0,3.83 2.042,5.483 6.671,5.483 2.22,0 3.938,-0.217 5.254,-0.692 l -2.579,16.388 m 59.392,-0.591 c -6.65,2.033 -13.08,3.013 -19.88,3 -21.684,-0.021 -32.987,-11.346 -32.987,-33.033 0,-25.321 14.38,-43.95 33.9,-43.95 15.97,0 26.17,10.429 26.17,26.8 0,5.433 -0.7,10.733 -2.382,18.212 h -38.575 c -1.306,10.741 5.569,15.221 16.837,15.221 6.93,0 13.188,-1.434 20.137,-4.676 z M 382.48,251.619 c 0.117,-1.538 2.059,-13.217 -9.013,-13.217 -6.166,0 -10.579,4.717 -12.375,13.217 z m -123.42,-5.004 c 0,9.365 4.542,15.816 14.842,20.675 7.891,3.708 9.112,4.812 9.112,8.17 0,4.617 -3.483,6.7 -11.187,6.7 -5.817,0 -11.225,-0.908 -17.467,-2.92 0,0 -2.554,16.32 -2.67,17.1 4.42,0.967 8.374,1.85 20.274,2.191 20.567,0 30.059,-7.829 30.059,-24.746 0,-10.18 -3.971,-16.15 -13.738,-20.637 -8.167,-3.758 -9.112,-4.583 -9.112,-8.046 0,-4 3.245,-6.058 9.541,-6.058 3.821,0 9.046,0.42 14.004,1.125 l 2.771,-17.18 c -5.041,-0.8 -12.691,-1.441 -17.146,-1.441 -21.804,0 -29.345,11.379 -29.283,25.067 m 398.45,50.629 h -18.437 l 0.917,-6.893 c -5.347,5.717 -10.825,8.18 -17.967,8.18 -14.168,0 -23.53,-12.213 -23.53,-30.725 0,-24.63 14.521,-45.393 31.709,-45.393 7.558,0 13.28,3.088 18.604,10.096 l 4.325,-26.308 h 19.221 z m -28.745,-17.109 c 9.075,0 15.45,-10.283 15.45,-24.953 0,-9.405 -3.63,-14.509 -10.325,-14.509 -8.838,0 -15.116,10.317 -15.116,24.875 -10e-4,9.686 3.357,14.587 9.991,14.587 z m -56.843,-56.929 c -2.439,22.917 -6.773,46.13 -10.162,69.063 l -0.891,4.975 h 19.491 c 6.971,-45.275 8.658,-54.117 19.588,-53.009 1.742,-9.266 4.982,-17.383 7.399,-21.479 -8.163,-1.7 -12.721,2.913 -18.688,11.675 0.471,-3.787 1.334,-7.466 1.163,-11.225 h -17.9 m -160.42,0 c -2.446,22.917 -6.78,46.13 -10.167,69.063 l -0.887,4.975 h 19.5 c 6.962,-45.275 8.646,-54.117 19.569,-53.009 1.75,-9.266 4.992,-17.383 7.4,-21.479 -8.154,-1.7 -12.716,2.913 -18.678,11.675 0.47,-3.787 1.325,-7.466 1.162,-11.225 h -17.899 m 254.57,68.242 c 0,-3.214 2.596,-5.8 5.796,-5.8 3.197,-0.003 5.792,2.587 5.795,5.785 v 0.015 c -10e-4,3.2 -2.595,5.794 -5.795,5.796 -3.2,-0.002 -5.794,-2.596 -5.796,-5.796 z m 5.796,4.404 c 2.432,0.001 4.403,-1.97 4.403,-4.401 v -0.002 c 0.003,-2.433 -1.968,-4.406 -4.399,-4.408 h -0.004 c -2.435,10e-4 -4.408,1.974 -4.409,4.408 0.003,2.432 1.976,4.403 4.409,4.403 z m -0.784,-1.87 h -1.188 v -5.084 h 2.154 c 0.446,0 0.908,0.008 1.296,0.254 0.416,0.283 0.654,0.767 0.654,1.274 0,0.575 -0.338,1.113 -0.888,1.317 l 0.941,2.236 h -1.319 l -0.78,-2.008 h -0.87 v 2.008 z m 0,-2.88 h 0.654 c 0.245,0 0.513,0.018 0.729,-0.1 0.195,-0.125 0.295,-0.361 0.295,-0.587 -0.009,-0.21 -0.115,-0.404 -0.287,-0.524 -0.204,-0.117 -0.542,-0.085 -0.763,-0.085 h -0.629 v 1.296 z" />
    </g>
    <g
       id="g91"
       transform="matrix(0.09080234,0,0,0.09080234,742.46005,203.46174)">
      <path
         id="path68"
         d="m 41.68,0 h 698.14 c 23.027,0 41.68,18.983 41.68,42.42 v 414.66 c 0,23.437 -18.652,42.42 -41.68,42.42 H 41.68 C 18.652,499.5 0,480.517 0,457.08 V 42.42 C 0,18.983 18.652,0 41.68,0 Z" />
      <path
         id="path70"
         fill="#fff100"
         d="m 167.25,181.4 c 6.8,-2.3 14.1,-3.5 21.7,-3.5 33.2,0 60.9,23.601 67.2,54.9 l 47,-9.6 c -10.8,-53.2 -57.8,-93.301 -114.2,-93.301 -12.9,0 -25.3,2.101 -36.9,6 z" />
      <path
         id="path72"
         fill="#00a3df"
         d="m 111.75,333.8 31.8,-36 c -14.2,-12.6 -23.1,-30.9 -23.1,-51.4 0,-20.399 8.9,-38.8 23.1,-51.3 l -31.8,-35.899 c -24.1,21.399 -39.3,52.5 -39.3,87.3 0,34.699 15.2,65.898 39.3,87.299 z" />
      <path
         id="path74"
         fill="#ee4023"
         d="m 256.15,260.2 c -6.4,31.3 -34,54.8 -67.2,54.8 -7.6,0 -14.9,-1.2 -21.8,-3.5 l -15.2,45.5 c 11.6,3.899 24.1,6 37,6 56.4,0 103.4,-40 114.2,-93.2 z" />
      <path
         id="path76"
         fill="#ffffff"
         d="m 459.75,292.4 c -7.8,7.601 -18.3,12.2 -29.9,12 -8,-0.1 -15.399,-2.5 -21.6,-6.5 l -15.601,24.801 c 10.7,6.699 23.2,10.699 36.801,10.899 19.699,0.3 37.699,-7.5 50.8,-20.2 z m -28.2,-101.1 c -39.2,-0.6 -71.6,30.8 -72.2,70 -0.2,14.7 4,28.5 11.5,39.9 l 128.8,-55.101 c -7.2,-30.899 -34.8,-54.2 -68.1,-54.799 m -42.7,75.599 c -0.2,-1.6 -0.3,-3.3 -0.3,-5 0.4,-23.1 19.4,-41.6 42.5,-41.199 12.6,0.199 23.8,5.899 31.3,14.899 z m 151.3,-107.6 v 137.3 l 23.801,9.9 -11.301,27.1 -23.6,-9.8 c -5.3,-2.3 -8.9,-5.8 -11.6,-9.8 -2.601,-4 -4.601,-9.601 -4.601,-17 v -137.7 z m 85.901,63.5 c 4.2,-1.4 8.6,-2.1 13.3,-2.1 20.3,0 37.101,14.399 41,33.5 l 28.7,-5.9 c -6.6,-32.5 -35.3,-56.9 -69.7,-56.9 -7.899,0 -15.5,1.301 -22.5,3.601 z m -33.901,92.9 19.4,-21.9 c -8.7,-7.7 -14.1,-18.9 -14.1,-31.4 0,-12.5 5.5,-23.699 14.1,-31.3 L 592.15,209.2 c -14.699,13 -24,32.1 -24,53.3 0,21.2 9.301,40.199 24,53.199 z m 88.201,-44.801 c -3.899,19.101 -20.8,33.5 -41,33.5 -4.6,0 -9.1,-0.8 -13.3,-2.199 l -9.3,27.8 c 7.1,2.399 14.7,3.7 22.6,3.7 34.4,0 63.101,-24.4 69.7,-56.9 z" />
    </g>
    <g
       id="g110"
       transform="matrix(0.09175138,0,0,0.09175138,817.38786,203.17788)">
      <path
         id="path93"
         fill="#0e4595"
         d="m 40,0 h 700 c 22.092,0 40,17.909 40,40 v 420 c 0,22.092 -17.908,40 -40,40 H 40 C 17.909,500 0,482.092 0,460 V 40 C 0,17.909 17.909,0 40,0 Z" />
      <path
         id="path95"
         fill="#ffffff"
         d="m 293.2,348.73 33.361,-195.76 h 53.36 L 346.536,348.73 Z M 539.31,157.19 c -10.57,-3.966 -27.137,-8.222 -47.822,-8.222 -52.725,0 -89.865,26.55 -90.18,64.603 -0.299,28.13 26.514,43.822 46.752,53.186 20.771,9.595 27.752,15.714 27.654,24.283 -0.131,13.121 -16.586,19.116 -31.922,19.116 -21.357,0 -32.703,-2.967 -50.227,-10.276 l -6.876,-3.11 -7.489,43.823 c 12.463,5.464 35.51,10.198 59.438,10.443 56.09,0 92.5,-26.246 92.916,-66.882 0.199,-22.269 -14.016,-39.216 -44.801,-53.188 -18.65,-9.055 -30.072,-15.099 -29.951,-24.268 0,-8.137 9.668,-16.839 30.557,-16.839 17.449,-0.27 30.09,3.535 39.938,7.5 l 4.781,2.26 7.232,-42.429 m 137.31,-4.223 h -41.232 c -12.773,0 -22.332,3.487 -27.941,16.234 l -79.244,179.4 h 56.031 c 0,0 9.16,-24.123 11.232,-29.418 6.125,0 60.555,0.084 68.338,0.084 1.596,6.853 6.49,29.334 6.49,29.334 h 49.514 L 676.62,152.961 Z m -65.418,126.41 c 4.412,-11.279 21.26,-54.723 21.26,-54.723 -0.316,0.522 4.379,-11.334 7.074,-18.684 l 3.605,16.879 c 0,0 10.219,46.729 12.354,56.528 z m -363.3,-126.41 -52.24,133.5 -5.567,-27.13 C 180.37,228.064 150.07,194.182 116.197,177.219 l 47.766,171.2 56.456,-0.064 84.004,-195.39 h -56.521" />
      <path
         id="path97"
         fill="#f2ae14"
         d="M 146.92,152.96 H 60.879 l -0.681,4.073 c 66.938,16.204 111.23,55.363 129.62,102.41 l -18.71,-89.96 c -3.23,-12.395 -12.597,-16.094 -24.186,-16.527" />
    </g>
    <g
       id="g126"
       transform="matrix(0.08906221,0,0,0.08906221,594.50676,204.28975)">
      <path
         id="path112"
         fill="#2557d6"
         d="m 40,0.001 h 700 c 22.092,0 40,17.909 40,40 v 420 c 0,22.092 -17.908,40 -40,40 H 40 c -22.091,0 -40,-17.908 -40,-40 v -420 c 0,-22.091 17.909,-40 40,-40 z" />
      <path
         id="path114"
         fill="#ffffff"
         d="m 0.253,235.69 h 37.441 l 8.442,-19.51 h 18.9 l 8.42,19.51 h 73.668 v -14.915 l 6.576,14.98 h 38.243 l 6.576,-15.202 v 15.138 h 183.08 l -0.085,-32.026 h 3.542 c 2.479,0.083 3.204,0.302 3.204,4.226 v 27.8 h 94.689 v -7.455 c 7.639,3.92 19.518,7.455 35.148,7.455 h 39.836 l 8.525,-19.51 h 18.9 l 8.337,19.51 h 76.765 v -18.532 l 11.626,18.532 h 61.515 v -122.51 h -60.88 v 14.468 l -8.522,-14.468 h -62.471 v 14.468 L 603.9,113.181 h -84.38 c -14.123,0 -26.539,1.889 -36.569,7.153 v -7.153 h -58.229 v 7.153 c -6.383,-5.426 -15.079,-7.153 -24.75,-7.153 h -212.74 l -14.274,31.641 -14.659,-31.641 H 91.294 v 14.468 L 83.932,113.181 H 26.787 L 0.248,171.427 v 64.261 h 0.003 z m 236.34,-17.67 h -22.464 l -0.083,-68.794 -31.775,68.793 h -19.24 l -31.858,-68.854 v 68.854 h -44.57 l -8.42,-19.592 H 32.556 l -8.505,19.592 H 0.25 L 39.491,130.182 H 72.05 l 37.269,83.164 v -83.164 h 35.766 l 28.678,59.587 26.344,-59.587 h 36.485 z M 70.693,180.197 55.695,145.18 40.78,180.197 Z m 255.3,37.821 H 252.79 v -87.837 h 73.203 v 18.291 h -51.289 v 15.833 h 50.06 v 18.005 h -50.061 v 17.542 h 51.289 z m 103.16,-64.18 c 0,14.004 -9.755,21.24 -15.439,23.412 4.794,1.748 8.891,4.838 10.84,7.397 3.094,4.369 3.628,8.271 3.628,16.116 v 17.255 h -22.104 l -0.083,-11.077 c 0,-5.285 0.528,-12.886 -3.458,-17.112 -3.202,-3.09 -8.083,-3.76 -15.973,-3.76 h -23.523 v 31.95 h -21.914 v -87.838 h 50.401 c 11.199,0 19.451,0.283 26.535,4.207 6.933,3.924 11.09,9.652 11.09,19.45 z m -27.699,13.042 c -3.013,1.752 -6.573,1.81 -10.841,1.81 h -26.62 v -19.51 h 26.982 c 3.818,0 7.804,0.164 10.393,1.584 2.842,1.28 4.601,4.003 4.601,7.765 0,3.84 -1.674,6.929 -4.515,8.351 z m 62.844,51.138 H 441.94 v -87.837 h 22.358 z m 259.56,0 H 692.805 L 651.27,152.091 v 65.927 h -44.628 l -8.527,-19.592 h -45.521 l -8.271,19.592 h -25.648 c -10.649,0 -24.138,-2.257 -31.773,-9.715 -7.701,-7.458 -11.708,-17.56 -11.708,-33.533 0,-13.027 2.395,-24.936 11.812,-34.347 7.085,-7.01 18.18,-10.242 33.28,-10.242 h 21.215 v 18.821 H 520.73 c -7.997,0 -12.514,1.14 -16.862,5.203 -3.735,3.699 -6.298,10.69 -6.298,19.897 0,9.41 1.951,16.196 6.023,20.628 3.373,3.476 9.506,4.53 15.272,4.53 h 9.842 l 30.884,-69.076 h 32.835 l 37.102,83.081 v -83.08 h 33.366 l 38.519,61.174 v -61.174 h 22.445 z m -133.2,-37.82 -15.165,-35.017 -15.081,35.017 z m 189.04,178.08 c -5.322,7.457 -15.694,11.238 -29.736,11.238 h -42.319 v -18.84 h 42.147 c 4.181,0 7.106,-0.527 8.868,-2.175 1.665,-1.474 2.605,-3.554 2.591,-5.729 0,-2.561 -1.064,-4.593 -2.677,-5.811 -1.59,-1.342 -3.904,-1.95 -7.722,-1.95 -20.574,-0.67 -46.244,0.608 -46.244,-27.194 0,-12.742 8.443,-26.156 31.439,-26.156 h 43.649 v -17.479 h -40.557 c -12.237,0 -21.129,2.81 -27.425,7.174 v -7.175 h -59.985 c -9.595,0 -20.854,2.279 -26.179,7.175 v -7.175 h -107.12 v 7.175 c -8.524,-5.892 -22.908,-7.175 -29.549,-7.175 h -70.656 v 7.175 c -6.745,-6.258 -21.742,-7.175 -30.886,-7.175 H 308.26 l -18.094,18.764 -16.949,-18.764 h -118.13 v 122.59 h 115.9 l 18.646,-19.062 17.565,19.062 71.442,0.061 v -28.838 h 7.021 c 9.479,0.14 20.66,-0.228 30.523,-4.312 v 33.085 h 58.928 v -31.952 h 2.842 c 3.628,0 3.985,0.144 3.985,3.615 v 28.333 h 179.01 c 11.364,0 23.244,-2.786 29.824,-7.845 v 7.845 h 56.78 c 11.815,0 23.354,-1.587 32.134,-5.649 l 0.002,-22.84 z m -354.94,-47.155 c 0,24.406 -19.005,29.445 -38.159,29.445 h -27.343 v 29.469 h -42.591 l -26.984,-29.086 -28.042,29.086 h -86.802 v -87.859 h 88.135 l 26.961,28.799 27.875,-28.799 h 70.021 c 17.389,0 36.929,4.613 36.929,28.945 z m -174.22,40.434 H 196.66 v -17.48 h 48.11 v -17.926 h -48.11 v -15.974 h 54.939 l 23.969,25.604 z m 86.81,10.06 -33.644,-35.789 33.644,-34.65 z m 49.757,-39.066 h -28.318 v -22.374 h 28.572 c 7.912,0 13.404,3.09 13.404,10.772 0,7.599 -5.238,11.602 -13.658,11.602 z m 148.36,-40.373 h 73.138 v 18.17 h -51.315 v 15.973 h 50.062 v 17.926 h -50.062 v 17.48 l 51.314,0.08 v 18.23 h -73.139 z m -28.119,47.029 c 4.878,1.725 8.865,4.816 10.734,7.375 3.095,4.291 3.542,8.294 3.631,16.037 v 17.418 h -22.002 v -10.992 c 0,-5.286 0.531,-13.112 -3.542,-17.198 -3.201,-3.147 -8.083,-3.899 -16.076,-3.899 h -23.42 v 32.09 h -22.02 v -87.859 h 50.594 c 11.093,0 19.173,0.47 26.366,4.146 6.915,4.004 11.266,9.487 11.266,19.511 -10e-4,14.022 -9.764,21.178 -15.531,23.371 z M 494.961,318.1 c -2.932,1.667 -6.556,1.811 -10.818,1.811 h -26.622 v -19.732 h 26.982 c 3.902,0 7.807,0.08 10.458,1.587 2.84,1.423 4.538,4.146 4.538,7.903 0,3.758 -1.699,6.786 -4.538,8.431 z m 197.82,5.597 c 4.27,4.229 6.554,9.571 6.554,18.613 0,18.9 -12.322,27.723 -34.425,27.723 h -42.68 v -18.84 h 42.51 c 4.157,0 7.104,-0.525 8.95,-2.175 1.508,-1.358 2.589,-3.333 2.589,-5.729 0,-2.561 -1.17,-4.592 -2.675,-5.811 -1.675,-1.34 -3.986,-1.949 -7.803,-1.949 -20.493,-0.67 -46.157,0.609 -46.157,-27.192 0,-12.744 8.355,-26.158 31.33,-26.158 h 43.932 v 18.7 h -40.198 c -3.984,0 -6.575,0.145 -8.779,1.587 -2.4,1.422 -3.29,3.534 -3.29,6.319 0,3.314 2.037,5.57 4.795,6.546 2.311,0.77 4.795,0.995 8.526,0.995 l 11.797,0.306 c 11.895,0.276 20.061,2.248 25.024,7.065 z m 86.955,-23.52 h -39.938 c -3.986,0 -6.638,0.144 -8.867,1.587 -2.312,1.423 -3.202,3.534 -3.202,6.322 0,3.314 1.951,5.568 4.791,6.544 2.312,0.771 4.795,0.996 8.444,0.996 l 11.878,0.304 c 11.983,0.284 19.982,2.258 24.86,7.072 0.891,0.67 1.422,1.422 2.033,2.175 v -25 z" />
    </g>
    <g
       id="g192"
       transform="matrix(0.20594647,0,0,0.20594647,905.09889,59.395191)">
      <path
         d="M 871.8,990 H 128.3 C 91,990 60.7,959.7 60.7,922.4 V 178.9 c 0,-37.4 30.3,-67.6 67.6,-67.6 h 67.6 v 33.8 c 0,56 45.4,101.4 101.4,101.4 55.9,0 101.4,-45.4 101.4,-101.4 v -33.7 h 202.8 v 33.8 c 0,56 45.4,101.4 101.4,101.4 55.9,0 101.4,-45.4 101.4,-101.4 v -33.8 h 67.6 c 37.3,0 67.6,30.3 67.6,67.6 v 743.4 c -0.2,37.3 -30.4,67.6 -67.7,67.6 z m 0,-679 H 128.3 V 922.4 H 871.7 Z M 701.7,212.7 c -36.8,0 -66.5,-29.8 -66.5,-66.5 V 76.5 c 0,-36.8 29.7,-66.5 66.5,-66.5 36.8,0 66.5,29.7 66.5,66.5 v 69.7 c 0.1,36.7 -29.7,66.5 -66.5,66.5 z m -405.5,0 c -36.8,0 -66.5,-29.8 -66.5,-66.5 V 76.5 c 0,-36.8 29.7,-66.5 66.5,-66.5 36.8,0 66.5,29.7 66.5,66.5 v 69.7 c 0.1,36.7 -29.7,66.5 -66.5,66.5 z"
         id="path190"
         sodipodi:nodetypes="ssssscsssccssscsscscccccssssscsssssscs" />
      <text
         xml:space="preserve"
         style="font-style:normal;font-variant:normal;font-weight:bold;font-stretch:normal;font-size:492.568px;line-height:1.25;font-family:C059;-inkscape-font-specification:'C059, Bold';font-variant-ligatures:normal;font-variant-caps:normal;font-variant-numeric:normal;font-variant-east-asian:normal;letter-spacing:0px;word-spacing:0px;fill:#000000;stroke-width:12.3142"
         x="218.31406"
         y="774.98438"
         id="text202"><tspan
           sodipodi:role="line"
           id="tspan200"
           x="218.31406"
           y="774.98438"
           style="font-style:normal;font-variant:normal;font-weight:bold;font-stretch:normal;font-size:492.568px;font-family:C059;-inkscape-font-specification:'C059, Bold';font-variant-ligatures:normal;font-variant-caps:normal;font-variant-numeric:normal;font-variant-east-asian:normal;fill:#000000;stroke-width:12.3142">07</tspan></text>
    </g>
  </g>
</svg>
