<?xml version="1.0" encoding="UTF-8" standalone="no"?>
<svg
   xmlns:dc="http://purl.org/dc/elements/1.1/"
   xmlns:cc="http://creativecommons.org/ns#"
   xmlns:rdf="http://www.w3.org/1999/02/22-rdf-syntax-ns#"
   xmlns:svg="http://www.w3.org/2000/svg"
   xmlns="http://www.w3.org/2000/svg"
   xmlns:sodipodi="http://sodipodi.sourceforge.net/DTD/sodipodi-0.dtd"
   xmlns:inkscape="http://www.inkscape.org/namespaces/inkscape"
   inkscape:version="1.0 (4035a4fb49, 2020-05-01)"
   sodipodi:docname="hannakids.svg"
   id="svg54"
   viewBox="0 0 14134 9896"
   style="shape-rendering:geometricPrecision; text-rendering:geometricPrecision; image-rendering:optimizeQuality; fill-rule:evenodd; clip-rule:evenodd"
   version="1.1"
   height="90.1666mm"
   width="128.787mm"
   xml:space="preserve"><metadata
   id="metadata58"><rdf:RDF><cc:Work
       rdf:about=""><dc:format>image/svg+xml</dc:format><dc:type
         rdf:resource="http://purl.org/dc/dcmitype/StillImage" /></cc:Work></rdf:RDF></metadata><sodipodi:namedview
   inkscape:current-layer="Camada_x0020_1"
   inkscape:window-maximized="1"
   inkscape:window-y="0"
   inkscape:window-x="50"
   inkscape:cy="110.30622"
   inkscape:cx="377.52483"
   inkscape:zoom="1.625073"
   showgrid="false"
   id="namedview56"
   inkscape:window-height="744"
   inkscape:window-width="1316"
   inkscape:pageshadow="2"
   inkscape:pageopacity="0"
   guidetolerance="10"
   gridtolerance="10"
   objecttolerance="10"
   borderopacity="1"
   bordercolor="#666666"
   pagecolor="#ffffff" />
 <defs
   id="defs4">
  <style
   id="style2"
   type="text/css">
   <![CDATA[
    .str0 {stroke:white;stroke-width:54.8737;stroke-linecap:round;stroke-linejoin:round}
    .fil2 {fill:#0070C0}
    .fil8 {fill:#00B0F0}
    .fil10 {fill:#92CF50}
    .fil9 {fill:#C55A11}
    .fil7 {fill:#DA2EA8}
    .fil1 {fill:#FFC000}
    .fil5 {fill:#00B0F0;fill-rule:nonzero}
    .fil4 {fill:#92CF50;fill-rule:nonzero}
    .fil6 {fill:#BF9000;fill-rule:nonzero}
    .fil3 {fill:#C55A11;fill-rule:nonzero}
    .fil0 {fill:#CCCCCC;fill-rule:nonzero}
    .fil11 {fill:white;fill-rule:nonzero}
   ]]>
  </style>
 </defs>
 <g
   id="Camada_x0020_1">
  <metadata
   id="CorelCorpID_0Corel-Layer" />
  <g
   id="_828103936">
   <path
   id="path7"
   d="M6223 8788c0,98 -85,167 -254,207 -67,16 -127,24 -181,24 -68,0 -123,-11 -164,-33 -43,-23 -64,-55 -63,-97 1,-60 22,-112 62,-154 29,-30 69,-56 121,-78 32,-11 64,-23 95,-36 18,-8 27,-17 27,-28 0,-11 -17,-16 -51,-16 -218,0 -413,177 -586,532l2 0c1,0 10,-1 28,-2 18,-1 36,-2 53,-2 150,0 307,41 471,124 255,126 382,323 382,589 -212,-4 -382,-5 -510,-5 -105,0 -169,1 -191,5 -6,-18 -10,-38 -10,-60 0,-27 6,-42 19,-45 53,-16 89,-28 107,-38 35,-18 53,-42 53,-70 0,-68 -42,-136 -124,-204 -97,-79 -215,-119 -353,-119 -15,0 -23,7 -23,22 14,125 69,322 166,592 -58,-29 -140,-58 -246,-89 -132,-37 -241,-56 -327,-56 -63,0 -109,10 -140,31l4 -230c22,-7 47,-10 76,-10 47,0 97,13 151,38 -39,-107 -72,-238 -99,-391 -28,-163 -41,-315 -41,-456 0,-7 0,-17 0,-30 1,-13 1,-23 1,-31 0,-33 -14,-58 -42,-75 -21,-12 -65,-26 -131,-40 -15,-4 -23,-36 -22,-96 216,-20 462,-48 740,-85 -92,212 -139,427 -139,644 0,38 1,66 2,83 83,-215 169,-370 260,-467 119,-125 273,-188 460,-188 173,0 300,70 379,209 25,45 38,89 38,131z"
   class="fil0" />
   <path
   id="path9"
   d="M7193 9823c0,7 -4,11 -12,11 -6,0 -59,-5 -157,-14 -99,-10 -180,-15 -246,-15 -105,0 -291,22 -557,65 0,-21 8,-74 25,-158 1,-2 26,-7 76,-16 54,-10 91,-27 111,-49 16,-16 35,-107 59,-271 26,-178 39,-333 39,-467 0,-118 -12,-199 -36,-244 -5,-12 -17,-18 -36,-18 -14,0 -31,3 -54,11 -22,7 -35,11 -38,11 -10,0 -28,-18 -52,-54 -24,-36 -36,-63 -36,-80 0,-8 10,-13 32,-13 79,0 207,-9 384,-28 202,-22 351,-46 446,-71 4,-3 6,12 6,45 0,30 -6,48 -16,53 -78,31 -130,98 -156,199 -14,57 -28,191 -41,402 -3,38 -4,71 -4,100 0,204 23,331 70,383 14,14 33,22 57,22 17,0 39,-5 67,-14 28,-9 44,-14 48,-14 6,0 9,9 11,26 7,79 10,145 10,198z"
   class="fil0" />
   <path
   id="path11"
   d="M8705 9356c0,313 -194,469 -584,469 -61,0 -147,-4 -258,-12 -110,-7 -190,-11 -237,-11 -132,0 -229,23 -292,68l-18 -225c43,-29 89,-44 135,-44 32,0 63,8 92,24 -100,-262 -150,-567 -150,-913 0,-44 -16,-74 -49,-90 -4,-2 -39,-12 -106,-29 -12,-5 -18,-41 -18,-107 0,-66 3,-104 7,-113 132,113 324,169 576,169 27,0 65,-1 114,-4 50,-3 86,-5 109,-5 207,0 365,65 474,195 81,96 142,239 182,430 16,74 23,140 23,198zm-225 -157c0,-100 -44,-178 -131,-234 -57,-38 -147,-71 -272,-102 -85,-20 -176,-30 -275,-30 -16,0 -26,0 -31,2 -14,58 -20,124 -20,196 0,148 19,278 57,392 51,27 136,41 255,41 127,0 227,-21 299,-64 79,-46 118,-113 118,-201z"
   class="fil0" />
   <path
   id="path13"
   d="M10156 9301c0,55 -11,125 -33,208 -29,113 -108,201 -238,266 -135,69 -309,103 -523,103 -210,0 -376,-41 -498,-123 -103,-68 -154,-145 -154,-231 0,-56 22,-104 65,-144 48,-46 119,-75 211,-87 46,-6 93,-9 141,-9 100,0 178,14 236,43 56,28 84,64 84,110 0,69 -37,128 -111,175 -36,23 -96,50 -181,80 -33,11 -49,21 -49,30 0,29 60,44 182,44 95,0 177,-14 243,-42 82,-34 123,-83 123,-148 0,-9 -1,-20 -4,-32 -33,-172 -58,-274 -74,-308 -36,-69 -103,-104 -201,-104 -26,0 -70,4 -133,10 -62,7 -108,10 -135,10 -190,0 -285,-77 -285,-230 0,-48 10,-108 29,-178 26,-95 84,-170 174,-227 108,-67 255,-101 441,-101 190,0 340,30 447,90 97,54 145,124 145,208 0,125 -100,187 -299,187 -98,0 -181,-16 -249,-48 -64,-30 -96,-64 -96,-103 0,-56 43,-100 128,-133 32,-10 65,-21 98,-31 30,-12 45,-23 45,-35 0,-15 -21,-29 -63,-41 -41,-12 -88,-18 -141,-18 -65,0 -117,10 -159,30 -49,25 -74,62 -74,110 0,23 6,49 17,76 16,53 31,106 47,159 18,56 46,97 81,121 48,32 121,49 220,49 9,0 37,-1 83,-3 48,-2 83,-3 106,-3 113,0 196,16 251,49 68,41 103,115 103,221z"
   class="fil0" />
  </g>
  <g
   id="_828106336">
   <g
   id="g20">
    <path
   id="path16"
   d="M4869 6130c417,-118 672,-100 1179,-358 471,-240 849,-570 914,-603 130,454 246,761 34,1249 -377,866 -1605,806 -2127,-288zm-111 -424c8,-194 303,-577 703,-480l-24 87c-222,0 -365,4 -528,274 -74,123 -13,151 -151,119zm1076 -639c63,-171 498,-380 761,-220 92,56 55,20 67,90 -140,105 -113,-127 -454,-22 -305,95 -220,238 -374,152zm876 -516c-771,-124 -1450,22 -1976,557 -224,228 -244,357 -368,518 -162,-430 -192,-752 -563,-889 -441,-163 -889,112 -1025,365 -228,426 18,801 418,874 372,68 814,-190 1147,-282 -97,355 -146,592 0,950 555,1355 3043,931 3359,-625 71,-347 -14,-674 -177,-910 -161,-234 -344,-364 -647,-502 201,-133 691,-173 1004,-467 318,-299 289,-766 -105,-951 -414,-195 -877,20 -1081,242 -365,395 -94,675 14,1120z"
   class="fil1" />
    <path
   id="path18"
   d="M10760 6531c-136,495 -848,679 -1425,472 -456,-163 -962,-523 -857,-1144l2282 672zm-524 -1213c317,-133 421,703 112,814 -324,116 -440,-676 -112,-814zm-1033 -407c173,-83 295,164 312,330 20,198 -47,417 -189,476 -315,131 -484,-634 -123,-806zm127 -309c-516,64 -796,232 -1049,502 -261,278 -367,749 -183,1186 264,626 1088,1173 2044,1066 1535,-173 1746,-1811 451,-2499 -339,-180 -805,-312 -1263,-255z"
   class="fil2" />
   </g>
   <g
   id="g30">
    <path
   id="path22"
   d="M6191 8756c0,98 -85,167 -254,207 -67,16 -127,24 -181,24 -68,0 -123,-11 -164,-33 -43,-23 -64,-55 -63,-97 1,-60 22,-112 62,-154 29,-30 69,-56 121,-78 32,-11 64,-23 95,-36 18,-8 27,-17 27,-28 0,-11 -17,-16 -51,-16 -218,0 -413,177 -586,532l2 0c1,0 10,-1 28,-2 18,-1 36,-2 53,-2 150,0 307,41 471,124 255,126 382,323 382,589 -212,-4 -382,-5 -510,-5 -105,0 -169,1 -191,5 -6,-18 -10,-38 -10,-60 0,-27 6,-42 19,-45 53,-16 89,-28 107,-38 35,-18 53,-42 53,-70 0,-68 -42,-136 -124,-204 -97,-79 -215,-119 -353,-119 -15,0 -23,7 -23,22 14,125 69,322 166,592 -58,-29 -140,-58 -246,-89 -132,-37 -241,-56 -327,-56 -63,0 -109,10 -140,31l4 -230c22,-6 47,-10 76,-10 47,0 97,13 151,38 -39,-107 -72,-237 -99,-391 -28,-163 -41,-315 -41,-456 0,-7 0,-17 0,-30 1,-13 1,-23 1,-31 0,-33 -14,-58 -42,-75 -21,-12 -65,-26 -131,-40 -15,-4 -23,-36 -22,-96 216,-19 462,-48 740,-85 -92,212 -139,427 -139,644 0,38 1,66 2,83 83,-215 169,-370 260,-467 119,-125 273,-188 460,-188 173,0 300,70 379,209 25,45 38,89 38,131z"
   class="fil3" />
    <path
   id="path24"
   d="M7161 9791c0,7 -4,11 -12,11 -6,0 -59,-5 -157,-14 -99,-10 -180,-15 -246,-15 -105,0 -291,22 -557,65 0,-21 8,-74 25,-158 1,-2 26,-7 76,-16 54,-10 91,-27 111,-49 16,-16 35,-107 59,-270 26,-179 39,-334 39,-468 0,-118 -12,-199 -36,-244 -5,-12 -17,-18 -36,-18 -13,0 -31,4 -54,11 -22,7 -35,11 -38,11 -10,0 -28,-18 -52,-54 -24,-36 -36,-63 -36,-80 0,-8 10,-13 32,-13 79,0 207,-9 384,-28 202,-22 351,-46 446,-71 4,-3 6,12 6,45 0,30 -6,48 -16,53 -78,31 -130,98 -156,199 -14,57 -28,191 -41,402 -3,38 -4,71 -4,100 0,204 23,331 70,383 14,15 33,22 57,22 17,0 39,-5 67,-14 28,-9 44,-14 48,-14 5,0 9,9 11,26 7,79 10,145 10,198z"
   class="fil4" />
    <path
   id="path26"
   d="M8673 9324c0,313 -194,469 -584,469 -61,0 -147,-4 -258,-12 -110,-7 -190,-11 -237,-11 -132,0 -229,23 -292,68l-18 -225c43,-29 89,-44 135,-44 32,0 63,8 92,24 -100,-262 -150,-567 -150,-913 0,-44 -16,-74 -49,-90 -3,-2 -39,-11 -106,-29 -12,-5 -18,-41 -18,-107 0,-66 3,-104 7,-113 132,113 324,169 576,169 27,0 65,-1 114,-4 50,-3 86,-5 109,-5 207,0 365,65 474,195 81,96 142,239 182,430 16,74 23,140 23,198zm-225 -157c0,-100 -44,-178 -131,-234 -57,-38 -147,-71 -272,-102 -85,-20 -176,-30 -275,-30 -16,0 -26,0 -31,2 -14,58 -20,124 -20,196 0,148 19,278 57,392 51,27 136,41 255,41 127,0 227,-21 299,-64 79,-46 118,-113 118,-201z"
   class="fil5" />
    <path
   id="path28"
   d="M10124 9269c0,55 -11,125 -33,208 -29,113 -108,201 -238,266 -135,69 -309,103 -523,103 -210,0 -376,-41 -498,-123 -102,-68 -154,-145 -154,-231 0,-56 22,-104 65,-144 48,-46 119,-75 211,-87 46,-6 93,-9 141,-9 100,0 178,14 236,43 56,28 84,64 84,110 0,69 -37,128 -111,175 -36,23 -96,50 -181,80 -33,11 -49,21 -49,30 0,29 60,44 182,44 95,0 177,-14 243,-42 82,-34 123,-83 123,-148 0,-9 -1,-20 -4,-32 -33,-172 -58,-274 -74,-308 -36,-69 -103,-104 -201,-104 -26,0 -70,4 -133,10 -62,7 -108,10 -135,10 -190,0 -285,-77 -285,-230 0,-48 10,-108 29,-178 26,-95 84,-170 174,-227 108,-67 255,-101 441,-101 190,0 340,30 447,90 97,54 145,124 145,208 0,125 -100,187 -299,187 -98,0 -181,-16 -249,-48 -64,-30 -96,-64 -96,-103 0,-56 43,-100 128,-133 32,-10 65,-21 98,-31 30,-12 45,-23 45,-35 0,-15 -21,-29 -62,-41 -42,-12 -89,-18 -142,-18 -64,0 -117,10 -159,30 -49,25 -74,62 -74,110 0,23 6,49 17,76 16,53 32,106 47,159 18,56 46,97 81,121 48,32 121,49 220,49 9,0 37,-1 83,-3 48,-2 83,-3 106,-3 113,0 196,16 251,49 68,41 103,115 103,221z"
   class="fil6" />
   </g>
  </g>
  <rect
   id="rect33"
   height="2805"
   width="2816"
   y="27"
   x="27"
   class="fil7 str0" />
  <rect
   id="rect35"
   height="2805"
   width="2816"
   y="27"
   x="2843"
   class="fil8 str0" />
  <rect
   id="rect37"
   height="2805"
   width="2816"
   y="27"
   x="5659"
   class="fil1 str0" />
  <rect
   id="rect39"
   height="2805"
   width="2816"
   y="27"
   x="8475"
   class="fil9 str0" />
  <rect
   id="rect41"
   height="2805"
   width="2816"
   y="27"
   x="11291"
   class="fil10 str0" />
  <path
   id="path43"
   d="M1210 1632l-18 59c-3,12 -8,30 -14,51 -32,111 -59,184 -79,219 -4,7 -12,17 -23,31 -38,34 -84,52 -139,52 -43,0 -78,-10 -104,-29 -26,-19 -40,-43 -40,-73 0,-22 8,-61 23,-117 16,-56 33,-109 51,-159 -45,-9 -68,-29 -68,-59 0,-22 7,-46 21,-74 15,-27 33,-51 55,-73 22,-22 43,-36 64,-42 9,-25 25,-78 50,-159 55,-175 100,-293 135,-353 14,-20 26,-35 36,-46 30,-29 69,-44 116,-44 29,0 55,5 77,16 23,10 40,24 52,42 12,18 18,39 18,63 0,33 -41,174 -124,421 -1,4 -3,10 -6,18 -2,8 -5,15 -7,22l-3 6 320 -6 16 -56c19,-60 38,-119 58,-177 20,-58 38,-105 52,-141 15,-35 29,-66 44,-93 15,-27 29,-47 42,-61 30,-33 72,-50 125,-50 91,0 137,40 137,119 0,74 -40,210 -119,407 -11,28 -18,45 -20,52 2,-1 4,-1 6,-2 2,0 4,0 6,0 32,0 57,5 75,17 19,11 28,27 28,46 0,13 -8,31 -24,55 -15,24 -32,46 -50,64 -18,18 -33,31 -46,39 -12,6 -36,13 -72,20l-3 14c-4,9 -10,26 -19,49 -12,34 -24,69 -37,104 -13,34 -24,61 -32,80 -9,20 -17,36 -25,49 -10,14 -22,26 -35,36 -28,22 -60,40 -96,54 -37,14 -67,21 -91,21 -28,0 -49,-7 -65,-21 -16,-14 -24,-33 -24,-58 0,-43 22,-130 66,-264 10,-29 18,-51 22,-64l-312 -5z"
   class="fil11" />
  <path
   id="path45"
   d="M4302 1195l-160 339 238 0 -74 -339 -4 0zm-75 -232l-54 -97c13,-10 26,-17 38,-21 45,-16 99,-23 163,-23 64,0 114,18 149,55 31,32 55,77 75,135 19,58 37,141 54,248 8,54 16,95 22,122 21,77 35,126 41,147 7,22 19,56 37,103 6,13 13,32 23,56 10,24 19,47 28,68 19,46 49,106 88,181 -49,35 -91,59 -125,75 -34,15 -65,23 -93,23 -35,0 -64,-7 -87,-21 -23,-13 -44,-35 -63,-64 -22,-40 -44,-94 -67,-162 -2,-7 -5,-15 -8,-25 -3,-10 -6,-21 -10,-33 -69,29 -123,43 -161,43 -22,0 -40,0 -56,-1 -14,-1 -76,-3 -188,-6l-9 19c-32,68 -62,120 -90,155 -28,36 -61,62 -97,76 -37,15 -82,22 -138,22 -31,0 -54,-3 -67,-10 -14,-8 -21,-19 -21,-35 0,-19 33,-72 97,-160 23,-30 40,-54 51,-72 -61,-12 -92,-33 -92,-65 0,-26 25,-64 74,-115 23,-24 45,-40 65,-46 21,-7 56,-11 106,-11 47,-87 77,-141 90,-165 13,-23 29,-53 50,-89 20,-36 44,-77 70,-123 26,-46 60,-107 105,-184z"
   class="fil11" />
  <path
   id="path47"
   d="M6544 1628l61 -167 83 -212c29,-77 54,-138 78,-182 16,-32 24,-54 24,-67 0,-17 -14,-36 -41,-56 -18,-12 -27,-23 -27,-32 0,-12 19,-25 55,-38 31,-13 66,-24 106,-34 40,-10 72,-15 97,-15 49,0 86,14 111,40 29,30 65,123 108,279 17,63 37,125 58,184 21,59 39,102 53,128 4,9 15,27 32,54 20,-61 43,-142 69,-242 39,-157 74,-263 106,-318 11,-18 22,-33 35,-47 24,-22 50,-39 78,-51 28,-12 56,-18 84,-18 17,0 29,5 35,14 7,8 10,24 10,47 0,17 -1,29 -4,38 -6,30 -17,70 -31,118 -15,48 -36,111 -62,187 -27,76 -60,168 -100,276l-13 32c-5,14 -9,26 -12,35 -71,198 -125,326 -162,385 -8,12 -17,24 -27,34 -18,18 -36,27 -54,27 -45,0 -94,-48 -146,-143 -95,-172 -169,-348 -223,-530 -11,-34 -19,-66 -25,-96l-4 0 -106 335c-1,6 -3,14 -7,23 -3,9 -6,18 -9,26 -2,6 -5,13 -8,21 -3,8 -6,15 -8,20 -20,58 -35,102 -48,132 -12,29 -24,53 -36,73 -11,18 -27,37 -47,58 -30,28 -63,49 -99,65 -37,16 -73,24 -108,24 -30,0 -45,-12 -45,-36 0,-18 13,-50 40,-94 30,-51 64,-121 102,-209 7,-19 16,-42 27,-68z"
   class="fil11" />
  <path
   id="path49"
   d="M9360 1628l61 -167 83 -212c29,-77 54,-138 77,-182 17,-32 25,-54 25,-67 0,-17 -14,-36 -41,-56 -18,-12 -27,-23 -27,-32 0,-12 19,-25 55,-38 31,-13 66,-24 106,-34 40,-10 72,-15 97,-15 49,0 86,14 111,40 29,30 65,123 108,279 17,63 37,125 58,184 21,59 39,102 53,128 4,9 15,27 32,54 20,-61 42,-142 69,-242 38,-157 74,-263 106,-318 10,-18 22,-33 35,-47 24,-22 50,-39 78,-51 28,-12 55,-18 84,-18 17,0 28,5 35,14 6,8 10,24 10,47 0,17 -2,29 -4,38 -7,30 -17,70 -31,118 -15,48 -36,111 -62,187 -27,76 -60,168 -100,276l-13 32c-5,14 -9,26 -13,35 -70,198 -124,326 -161,385 -8,12 -17,24 -27,34 -18,18 -36,27 -54,27 -45,0 -94,-48 -146,-143 -95,-172 -169,-348 -223,-530 -11,-34 -20,-66 -25,-96l-4 0 -106 335c-1,6 -4,14 -7,23 -3,9 -6,18 -9,26 -2,6 -5,13 -8,21 -3,8 -6,15 -8,20 -20,58 -35,102 -48,132 -12,29 -24,53 -37,73 -10,18 -26,37 -46,58 -30,28 -63,49 -99,65 -37,16 -73,24 -108,24 -30,0 -45,-12 -45,-36 0,-18 13,-50 40,-94 30,-51 64,-121 102,-209 6,-19 15,-42 27,-68z"
   class="fil11" />
  <path
   sodipodi:nodetypes="ccccccccsccccccccccscccscscccccscsccscccccsc"
   id="path51"
   d="m 12750,1195 -160,339 h 237 l -74,-339 z m -76,-232 -54,-97 c 14,-10 26,-17 38,-21 45,-16 100,-23 163,-23 65,0 115,18 150,55 30,32 55,77 74,135 20,58 37,141 54,248 9,54 16,95 23,122 20,77 34,126 41,147 6,22 19,56 36,103 6,13 14,32 24,56 9,24 19,47 27,68 20,46 49,106 88,181 -49,35 -91,59 -124,75 -35,15 -66,23 -94,23 -34,0 -63,-7 -86,-21 -23,-13 -44,-35 -63,-64 -23,-40 -45,-94 -67,-162 -2,-7 -5,-15 -8,-25 -3,-10 -7,-21 -11,-33 -69,29 -122,43 -160,43 -22,0 -41,0 -57,-1 -13,-1 -76,-3 -188,-6 l -8,19 c -32,68 -62,120 -91,155 -28,36 -60,62 -97,76 -36,15 -82,22 -137,22 -32,0 -54,-3 -68,-10 -13,-8 -20,-19 -20,-35 0,-19 32,-72 97,-160 22,-30 39,-54 51,-72 -62,-12 -92,-33 -92,-65 0,-26 24,-64 74,-115 23,-24 44,-40 65,-46 20,-7 55,-11 105,-11 47,-87 77,-141 90,-165 13,-23 30,-53 50,-89 21,-36 44,-77 70,-123 26,-46 61,-107 105,-184 z"
   class="fil11" />
 </g>
</svg>
