<?xml version="1.0" encoding="UTF-8" standalone="no"?>
<svg
   xmlns:dc="http://purl.org/dc/elements/1.1/"
   xmlns:cc="http://creativecommons.org/ns#"
   xmlns:rdf="http://www.w3.org/1999/02/22-rdf-syntax-ns#"
   xmlns:svg="http://www.w3.org/2000/svg"
   xmlns="http://www.w3.org/2000/svg"
   xmlns:sodipodi="http://sodipodi.sourceforge.net/DTD/sodipodi-0.dtd"
   xmlns:inkscape="http://www.inkscape.org/namespaces/inkscape"
   width="450"
   height="250"
   viewBox="0 0 119.0625 66.145832"
   version="1.1"
   id="svg8"
   inkscape:version="1.0 (4035a4fb49, 2020-05-01)"
   sodipodi:docname="montagembr.svg"
   inkscape:export-filename="/home/maria/Ãrea de trabalho/montagem.png"
   inkscape:export-xdpi="104"
   inkscape:export-ydpi="104">
  <defs
     id="defs2" />
  <sodipodi:namedview
     id="base"
     pagecolor="#ffffff"
     bordercolor="#666666"
     borderopacity="1.0"
     inkscape:pageopacity="0.0"
     inkscape:pageshadow="2"
     inkscape:zoom="0.84010622"
     inkscape:cx="294.4834"
     inkscape:cy="187.13245"
     inkscape:document-units="mm"
     inkscape:current-layer="text14"
     showgrid="false"
     units="px"
     inkscape:window-width="1316"
     inkscape:window-height="744"
     inkscape:window-x="50"
     inkscape:window-y="0"
     inkscape:window-maximized="1"
     inkscape:document-rotation="0" />
  <metadata
     id="metadata5">
    <rdf:RDF>
      <cc:Work
         rdf:about="">
        <dc:format>image/svg+xml</dc:format>
        <dc:type
           rdf:resource="http://purl.org/dc/dcmitype/StillImage" />
        <dc:title />
      </cc:Work>
    </rdf:RDF>
  </metadata>
  <g
     inkscape:label="Camada 1"
     inkscape:groupmode="layer"
     id="layer1"
     transform="translate(0,-201.75001)">
    <rect
       style="fill:#0046be;fill-opacity:1;stroke-width:0.246575"
       id="rect10"
       width="119.65568"
       height="66.433212"
       x="0.2067285"
       y="201.679"
       inkscape:export-filename="/home/maria/ruby/montagembr/assets/img/logo-3.png"
       inkscape:export-xdpi="104"
       inkscape:export-ydpi="104" />
    <g
       style="font-style:normal;font-variant:normal;font-weight:normal;font-stretch:normal;font-size:20.6181px;line-height:1.25;font-family:Anton;-inkscape-font-specification:'Anton, Normal';font-variant-ligatures:normal;font-variant-caps:normal;font-variant-numeric:normal;font-feature-settings:normal;text-align:start;letter-spacing:0px;word-spacing:0px;writing-mode:lr-tb;text-anchor:start;fill:#ff0000;fill-opacity:1;stroke:none;stroke-width:0.515463"
       id="text14"
       aria-label="MontagemBR">
      <path
         id="path12"
         style="fill:#ffffff;stroke-width:0.515463"
         d="m 7.2674269,243.66637 v -17.71095 h 5.4019421 l 1.484503,10.80388 1.484503,-10.80388 h 5.443178 v 17.71095 h -3.237041 v -12.76261 l -2.041192,12.76261 h -3.175187 l -2.164901,-12.76261 v 12.76261 z" />
      <path
         id="path14"
         style="fill:#ffffff;stroke-width:0.515463"
         d="m 26.978296,243.83131 q -4.515364,0 -4.515364,-4.68031 v -6.06172 q 0,-2.14428 1.19585,-3.40198 1.216468,-1.27833 3.319514,-1.27833 2.103046,0 3.298896,1.27833 1.216468,1.2577 1.216468,3.40198 v 6.06172 q 0,4.68031 -4.515364,4.68031 z m 0,-2.78344 q 0.43298,0 0.639161,-0.30927 0.206181,-0.30927 0.206181,-0.84535 v -7.38128 q 0,-1.31955 -0.845342,-1.31955 -0.845342,0 -0.845342,1.31955 v 7.38128 q 0,0.53608 0.206181,0.84535 0.206181,0.30927 0.639161,0.30927 z" />
      <path
         id="path16"
         style="fill:#ffffff;stroke-width:0.515463"
         d="m 32.83383,228.57392 h 3.608168 v 1.91748 q 0.226799,-0.92781 0.783488,-1.50512 0.556688,-0.57731 1.484503,-0.57731 1.525739,0 2.247372,0.94844 0.742252,0.92781 0.742252,2.65973 v 11.64923 H 38.1533 v -11.2781 q 0,-0.49484 -0.206181,-0.84535 -0.185563,-0.3505 -0.597925,-0.3505 -0.556689,0 -0.742251,0.51545 -0.164945,0.49483 -0.164945,1.34018 v 10.61832 H 32.83383 Z" />
      <path
         id="path18"
         style="fill:#ffffff;stroke-width:0.515463"
         d="m 46.235566,243.83131 q -1.422649,0 -1.958719,-0.59792 -0.536071,-0.59793 -0.536071,-1.91749 v -9.42247 h -1.010287 v -2.74221 h 1.010287 v -3.1958 h 3.505077 v 3.1958 h 1.030905 v 2.74221 h -1.030905 v 8.47404 q 0,0.39174 0.06185,0.57731 0.06185,0.18556 0.32989,0.18556 0.206181,0 0.391744,-0.0206 0.185562,-0.0206 0.247417,-0.0206 v 2.47418 q -0.309272,0.0825 -0.907197,0.16494 -0.577306,0.10309 -1.133995,0.10309 z" />
      <path
         id="path20"
         style="fill:#ffffff;stroke-width:0.515463"
         d="m 52.152927,243.83131 q -1.752539,0 -2.412318,-1.15461 -0.639161,-1.17523 -0.639161,-3.34013 0,-1.77316 0.453598,-2.72159 0.474216,-0.94844 1.29894,-1.38142 0.824724,-0.45359 2.515408,-0.98966 l 0.989669,-0.32989 v -0.0412 -1.50512 q 0,-0.59793 -0.247417,-0.9072 -0.226799,-0.32989 -0.556689,-0.32989 -0.288653,0 -0.515452,0.26804 -0.206181,0.26803 -0.206181,0.72163 v 0.9072 h -3.505077 v -0.49484 q 0,-2.22675 1.030905,-3.17518 1.051523,-0.94844 3.401986,-0.94844 1.876247,0 3.051479,0.98967 1.175232,0.96905 1.175232,2.76283 v 11.5049 h -3.58755 v -1.79378 q -0.268035,0.92782 -0.86596,1.44327 -0.577307,0.51545 -1.381412,0.51545 z m 1.422648,-2.80406 q 0.412362,0 0.577307,-0.32989 0.185563,-0.35051 0.185563,-0.84534 v -4.20609 q -0.804106,0.30927 -1.19585,0.78348 -0.371125,0.47422 -0.371125,1.31956 v 1.9381 q 0,1.34018 0.804105,1.34018 z" />
      <path
         id="path22"
         style="fill:#ffffff;stroke-width:0.515463"
         d="m 63.431027,245.8725 q -1.608212,0 -2.536026,-0.26803 -0.907197,-0.24742 -1.793775,-0.96905 l 1.237086,-2.08243 q 1.319558,0.78349 2.618499,0.78349 0.845342,0 1.278322,-0.53607 0.43298,-0.53607 0.43298,-1.46389 v -0.82472 q -0.43298,1.54635 -2.288609,1.54635 -1.546358,0 -2.288609,-1.05152 -0.721634,-1.05152 -0.721634,-2.80406 v -5.66998 q 0,-1.99995 0.659779,-3.05148 0.680398,-1.07214 2.350464,-1.07214 0.96905,0 1.525739,0.49484 0.577307,0.47421 0.76287,1.36079 v -1.69068 h 3.69064 v 12.5358 q 0,2.53603 -1.175232,3.64941 -1.175232,1.11337 -3.752494,1.11337 z m 0.391744,-6.53593 q 0.845342,0 0.845342,-1.52574 v -5.38133 q 0,-0.4536 -0.247417,-0.86596 -0.247418,-0.41236 -0.618543,-0.41236 -0.474217,0 -0.639161,0.35051 -0.164945,0.32989 -0.164945,0.92781 v 5.38133 q 0,0.68039 0.164945,1.11337 0.164944,0.41237 0.659779,0.41237 z" />
      <path
         id="path24"
         style="fill:#ffffff;stroke-width:0.515463"
         d="m 73.987485,243.83131 q -2.329845,0 -3.340132,-1.27832 -1.010286,-1.27832 -1.010286,-3.81435 v -6.06172 q 0,-2.08243 1.195849,-3.17519 1.19585,-1.09276 3.340132,-1.09276 4.350419,0 4.350419,4.26795 v 1.09276 q 0,1.64945 -0.04124,2.68035 h -5.236997 v 2.92777 q 0,0.78349 0.164945,1.23709 0.164944,0.43298 0.701015,0.43298 0.412362,0 0.577307,-0.24742 0.185563,-0.24742 0.206181,-0.55669 0.04124,-0.32989 0.04124,-0.94843 v -1.46389 h 3.587549 v 0.86596 q 0,2.63912 -1.030905,3.89683 -1.010287,1.23708 -3.505077,1.23708 z m 0.948433,-9.17505 v -1.9381 q 0,-1.62883 -0.804106,-1.62883 -0.907196,0 -0.907196,1.62883 v 1.9381 z" />
      <path
         id="path26"
         style="fill:#ffffff;stroke-width:0.515463"
         d="m 79.822386,228.57392 h 3.525695 v 1.75254 q 0.247417,-0.96905 0.845342,-1.44327 0.597925,-0.47422 1.690684,-0.47422 0.886579,0 1.52574,0.41237 0.659779,0.39174 0.927814,1.09275 0.453598,-0.78348 1.010287,-1.13399 0.556689,-0.37113 1.546358,-0.37113 1.773156,0 2.453553,1.09276 0.701016,1.07214 0.701016,3.13395 l -0.04124,11.03069 h -3.628786 v -11.09254 q 0,-1.46389 -0.742251,-1.46389 -0.515453,0 -0.742252,0.51546 -0.226799,0.49483 -0.226799,1.19585 v 10.84512 h -3.608167 v -11.09254 q 0,-0.63916 -0.144327,-1.03091 -0.123709,-0.39174 -0.556689,-0.39174 -0.556689,0 -0.783488,0.55669 -0.226799,0.53607 -0.226799,1.29894 v 10.65956 h -3.525695 z" />
      <path
         id="path28"
         style="fill:#ffff00;stroke-width:0.515463"
         d="m 95.51275,225.95542 h 4.80402 q 1.9381,0 2.80406,0.94843 0.88658,0.94843 0.88658,3.09272 v 0.78348 q 0,2.53603 -1.8144,3.03087 1.11338,0.28865 1.56698,1.34017 0.4536,1.05152 0.4536,2.78344 0,2.82468 -0.84534,4.28857 -0.84535,1.44327 -3.05148,1.44327 h -4.80402 z m 4.185474,6.65965 q 0.453596,0 0.618546,-0.32989 0.16494,-0.35051 0.16494,-0.96905 v -1.77316 q 0,-0.86596 -0.762868,-0.86596 h -0.742251 v 3.93806 z m -0.371126,7.93796 q 1.381412,0 1.381412,-1.31955 v -2.20614 q 0,-0.80411 -0.24742,-1.21647 -0.2268,-0.41236 -0.82472,-0.41236 h -0.659779 v 5.13391 z" />
      <path
         id="path30"
         style="fill:#ffff00;stroke-width:0.515463"
         d="m 105.38878,225.95542 h 5.44318 q 1.29894,0 1.99995,0.59792 0.72164,0.57731 0.96905,1.64945 0.24742,1.05153 0.24742,2.70097 0,1.50512 -0.39174,2.35047 -0.39175,0.84534 -1.3608,1.17523 0.80411,0.16494 1.15462,0.8041 0.37112,0.63917 0.37112,1.73192 l -0.0412,6.70089 h -3.46384 v -6.92768 q 0,-0.74226 -0.28866,-0.94844 -0.28865,-0.20618 -1.05152,-0.20618 v 8.0823 h -3.58755 z m 4.45351,6.55655 q 0.74225,0 0.74225,-1.60821 0,-0.70101 -0.0619,-1.05152 -0.0619,-0.35051 -0.2268,-0.47422 -0.16495,-0.14432 -0.47422,-0.14432 h -0.82472 v 3.27827 z" />
    </g>
  </g>
</svg>
