<?xml version="1.0" encoding="UTF-8" standalone="no"?>
<svg
   xmlns:dc="http://purl.org/dc/elements/1.1/"
   xmlns:cc="http://creativecommons.org/ns#"
   xmlns:rdf="http://www.w3.org/1999/02/22-rdf-syntax-ns#"
   xmlns:svg="http://www.w3.org/2000/svg"
   xmlns="http://www.w3.org/2000/svg"
   xmlns:sodipodi="http://sodipodi.sourceforge.net/DTD/sodipodi-0.dtd"
   xmlns:inkscape="http://www.inkscape.org/namespaces/inkscape"
   sodipodi:docname="sabinorocha2.svg"
   inkscape:version="1.0 (4035a4fb49, 2020-05-01)"
   id="svg916"
   version="1.1"
   viewBox="0 0 119.0625 66.145835"
   height="250"
   width="450">
  <defs
     id="defs910" />
  <sodipodi:namedview
     inkscape:window-maximized="1"
     inkscape:window-y="0"
     inkscape:window-x="50"
     inkscape:window-height="744"
     inkscape:window-width="1316"
     units="px"
     showgrid="false"
     inkscape:document-rotation="0"
     inkscape:current-layer="layer1"
     inkscape:document-units="mm"
     inkscape:cy="297.5354"
     inkscape:cx="400"
     inkscape:zoom="0.6718593"
     inkscape:pageshadow="2"
     inkscape:pageopacity="0.0"
     borderopacity="1.0"
     bordercolor="#666666"
     pagecolor="#ffffff"
     id="base" />
  <metadata
     id="metadata913">
    <rdf:RDF>
      <cc:Work
         rdf:about="">
        <dc:format>image/svg+xml</dc:format>
        <dc:type
           rdf:resource="http://purl.org/dc/dcmitype/StillImage" />
        <dc:title></dc:title>
      </cc:Work>
    </rdf:RDF>
  </metadata>
  <g
     id="layer1"
     inkscape:groupmode="layer"
     inkscape:label="Layer 1">
    <path
       d="M 4.8109483,-7.0297978 H 122.72586 c 12.69753,0 22.91972,18.1221298 22.91972,40.6325398 0,22.51041 -10.22219,40.63254 -22.91972,40.63254 H 4.8109483 c -12.697526,0 -22.9197233,-18.12213 -22.9197233,-40.63254 0,-22.51041 10.2221973,-40.6325398 22.9197233,-40.6325398 z"
       style="opacity:1;fill:#330000;fill-opacity:1;fill-rule:evenodd;stroke:none;stroke-width:0;stroke-linejoin:miter;stroke-miterlimit:0;stroke-dasharray:none"
       id="rect16" />
    <g
       style="font-style:normal;font-variant:normal;font-weight:normal;font-stretch:normal;font-size:11.0285px;line-height:1.25;font-family:'Times New Roman';-inkscape-font-specification:'Times New Roman, ';font-variant-ligatures:normal;font-variant-caps:normal;font-variant-numeric:normal;font-feature-settings:normal;text-align:start;letter-spacing:0px;word-spacing:0px;writing-mode:lr-tb;text-anchor:start;fill:#ffb500;fill-opacity:1;stroke:none;stroke-width:0.275715"
       id="text817"
       aria-label="SABINO ROCHA  "
       transform="matrix(1.7277655,0,0,1.7277655,8.9026607,-467.25551)">
      <path
         id="path889"
         style="font-style:normal;font-variant:normal;font-weight:bold;font-stretch:normal;font-family:'New Century Schoolbook';-inkscape-font-specification:'New Century Schoolbook Bold';fill:#ffb500;fill-opacity:1;stroke-width:0.275715"
         d="m 1.2397445,289.79923 h 0.2906033 l 0.416091,-0.40949 c 0.3632541,0.29061 0.8321821,0.44251 1.3671564,0.44251 1.1161807,0 1.7238058,-0.73311 1.7238058,-1.53887 0,-0.81898 -0.4557188,-1.32753 -1.5454811,-1.55869 L 2.672947,286.56297 c -0.5812065,-0.11889 -0.7331128,-0.37647 -0.7331128,-0.66046 0,-0.47554 0.4887419,-0.68028 0.9114376,-0.68028 0.8189728,0 1.3935748,0.7199 1.6379457,1.4266 h 0.330231 l -0.08586,-1.74362 H 4.4495898 l -0.3566495,0.32362 c -0.3500448,-0.24437 -0.7331128,-0.36325 -1.1558085,-0.36325 -0.937856,0 -1.7502243,0.48874 -1.7502243,1.50585 0,0.67367 0.4755327,1.30772 1.6709689,1.53888 l 0.6736712,0.13209 c 0.4953465,0.0991 0.713299,0.29721 0.713299,0.68688 0,0.52837 -0.4953465,0.74632 -0.9576699,0.74632 -0.8850191,0 -1.512458,-0.80576 -1.7766428,-1.55869 H 1.1869075 Z" />
      <path
         id="path891"
         style="font-style:normal;font-variant:normal;font-weight:bold;font-stretch:normal;font-family:'New Century Schoolbook';-inkscape-font-specification:'New Century Schoolbook Bold';fill:#ffb500;fill-opacity:1;stroke-width:0.275715"
         d="M 5.1298642,289.73318 H 7.045204 v -0.35664 c -0.3632541,0 -0.660462,-0.10568 -0.660462,-0.44912 0,-0.1387 0.046232,-0.31042 0.1981386,-0.66046 h 1.6709689 l 0.2575802,0.67367 c 0.033023,0.0859 0.059442,0.17172 0.059442,0.24437 0,0.1387 -0.092465,0.19154 -0.2839987,0.19154 H 8.0821294 v 0.35664 h 2.3116166 v -0.35664 c -0.4160907,-0.0132 -0.4953461,-0.0991 -0.6472524,-0.46233 L 8.0623155,284.86558 H 7.566969 l -1.5652949,3.67217 c -0.2641848,0.62083 -0.5547881,0.81237 -0.8718099,0.83879 z m 1.6181319,-1.8625 0.6802759,-1.64455 0.6538574,1.64455 z" />
      <path
         id="path893"
         style="font-style:normal;font-variant:normal;font-weight:bold;font-stretch:normal;font-family:'New Century Schoolbook';-inkscape-font-specification:'New Century Schoolbook Bold';fill:#ffb500;fill-opacity:1;stroke-width:0.275715"
         d="m 12.256241,287.11776 v -1.22846 c 0,-0.52177 0.06605,-0.568 0.574602,-0.568 0.587811,0 0.911438,0.24437 0.911438,0.82558 0,0.64064 -0.343441,0.97088 -1.050135,0.97088 z m -1.862503,2.61542 h 2.972079 c 1.320924,0 1.783248,-0.60762 1.783248,-1.26808 0,-0.84539 -0.911438,-1.15581 -1.604923,-1.22186 v -0.0132 c 0.964274,-0.1519 1.373761,-0.50195 1.373761,-1.10957 0,-0.73972 -0.680276,-1.15581 -1.730411,-1.15581 h -2.793754 v 0.35665 h 0.290604 c 0.356649,0 0.396277,0.0793 0.396277,0.33023 v 3.39477 c 0,0.25098 -0.03963,0.33024 -0.396277,0.33024 h -0.290604 z m 1.862503,-2.25878 h 0.752927 c 0.548183,0 0.885019,0.36986 0.885019,0.96428 0,0.67367 -0.409487,0.93786 -1.175623,0.93786 -0.422695,0 -0.462323,-0.0793 -0.462323,-0.33024 z" />
      <path
         id="path895"
         style="font-style:normal;font-variant:normal;font-weight:bold;font-stretch:normal;font-family:'New Century Schoolbook';-inkscape-font-specification:'New Century Schoolbook Bold';fill:#ffb500;fill-opacity:1;stroke-width:0.275715"
         d="m 15.598178,289.73318 h 2.549383 v -0.35664 h -0.290603 c -0.35665,0 -0.396277,-0.0793 -0.396277,-0.33024 v -3.39477 c 0,-0.25098 0.03963,-0.33023 0.396277,-0.33023 h 0.290603 v -0.35665 h -2.549383 v 0.35665 h 0.290603 c 0.35665,0 0.396277,0.0793 0.396277,0.33023 v 3.39477 c 0,0.25098 -0.03963,0.33024 -0.396277,0.33024 h -0.290603 z" />
      <path
         id="path897"
         style="font-style:normal;font-variant:normal;font-weight:bold;font-stretch:normal;font-family:'New Century Schoolbook';-inkscape-font-specification:'New Century Schoolbook Bold';fill:#ffb500;fill-opacity:1;stroke-width:0.275715"
         d="m 18.372109,285.3213 c 0.303812,0 0.561392,0.11888 0.726508,0.35665 v 2.87301 c 0,0.61423 -0.112279,0.79916 -0.726508,0.82558 v 0.35664 h 1.90213 v -0.35664 c -0.614229,-0.0264 -0.726508,-0.21135 -0.726508,-0.82558 v -2.47013 h 0.01321 l 3.090962,3.7184 h 0.429301 v -3.65235 c 0,-0.61423 0.112278,-0.79916 0.726508,-0.82558 v -0.35665 H 21.90558 v 0.35665 c 0.61423,0.0264 0.726509,0.21135 0.726509,0.82558 v 1.85589 l -2.555988,-3.03812 h -1.703992 z" />
      <path
         id="path899"
         style="font-style:normal;font-variant:normal;font-weight:bold;font-stretch:normal;font-family:'New Century Schoolbook';-inkscape-font-specification:'New Century Schoolbook Bold';fill:#ffb500;fill-opacity:1;stroke-width:0.275715"
         d="m 25.406017,287.34892 c 0,-1.43321 0.389673,-2.15971 1.188832,-2.15971 0.792554,0 1.182227,0.7265 1.182227,2.15971 0,1.4332 -0.389673,2.15971 -1.182227,2.15971 -0.799159,0 -1.188832,-0.72651 -1.188832,-2.15971 z m -1.307715,0 c 0,1.41339 1.096367,2.48333 2.496547,2.48333 1.393574,0 2.489941,-1.06994 2.489941,-2.48333 0,-1.41339 -1.096367,-2.48334 -2.489941,-2.48334 -1.40018,0 -2.496547,1.06995 -2.496547,2.48334 z" />
      <path
         id="path901"
         style="font-style:normal;font-variant:normal;font-weight:bold;font-stretch:normal;font-family:'New Century Schoolbook';-inkscape-font-specification:'New Century Schoolbook Bold';fill:#ffb500;fill-opacity:1;stroke-width:0.275715"
         d="m 33.225867,285.76381 c 0,-0.39628 0.05944,-0.44251 0.614229,-0.44251 0.601021,0 0.931252,0.18493 0.931252,0.81897 0,0.75293 -0.521765,0.93786 -1.287901,0.93786 h -0.25758 z m -1.862503,3.96937 h 2.589011 v -0.35664 h -0.330231 c -0.35665,0 -0.396277,-0.0793 -0.396277,-0.33024 v -1.61152 h 0.34344 c 0.673671,0 0.87181,0.21134 0.878414,1.2945 0.0066,0.80577 0.475533,1.10297 1.063344,1.10297 0.627439,0 1.109576,-0.33023 1.109576,-1.17562 h -0.323626 c -0.03963,0.48874 -0.138697,0.63405 -0.303813,0.63405 -0.151906,0 -0.198138,-0.11228 -0.297208,-0.59442 -0.165115,-0.79916 -0.389672,-1.16902 -1.089762,-1.34074 v -0.0132 c 0.799159,-0.0528 1.419993,-0.46232 1.419993,-1.1492 0,-0.64725 -0.416091,-1.22846 -1.677573,-1.22846 h -2.985288 v 0.35665 h 0.290603 c 0.356649,0 0.396277,0.0793 0.396277,0.33023 v 3.39477 c 0,0.25098 -0.03963,0.33024 -0.396277,0.33024 h -0.290603 z" />
      <path
         id="path903"
         style="font-style:normal;font-variant:normal;font-weight:bold;font-stretch:normal;font-family:'New Century Schoolbook';-inkscape-font-specification:'New Century Schoolbook Bold';fill:#ffb500;fill-opacity:1;stroke-width:0.275715"
         d="m 38.185928,287.34892 c 0,-1.43321 0.389673,-2.15971 1.188832,-2.15971 0.792554,0 1.182227,0.7265 1.182227,2.15971 0,1.4332 -0.389673,2.15971 -1.182227,2.15971 -0.799159,0 -1.188832,-0.72651 -1.188832,-2.15971 z m -1.307715,0 c 0,1.41339 1.096367,2.48333 2.496547,2.48333 1.393574,0 2.489941,-1.06994 2.489941,-2.48333 0,-1.41339 -1.096367,-2.48334 -2.489941,-2.48334 -1.40018,0 -2.496547,1.06995 -2.496547,2.48334 z" />
      <path
         id="path905"
         style="font-style:normal;font-variant:normal;font-weight:bold;font-stretch:normal;font-family:'New Century Schoolbook';-inkscape-font-specification:'New Century Schoolbook Bold';fill:#ffb500;fill-opacity:1;stroke-width:0.275715"
         d="m 46.798341,286.76111 -0.05944,-1.88232 h -0.277394 l -0.376463,0.35665 c -0.303813,-0.23116 -0.686881,-0.36986 -1.208646,-0.36986 -1.400179,0 -2.496546,1.06995 -2.496546,2.48334 0,1.51245 0.904833,2.48333 2.371058,2.48333 1.221855,0 1.888922,-0.55478 2.146502,-1.74362 l -0.389673,-0.0925 c -0.158511,0.8586 -0.700089,1.43981 -1.486039,1.43981 -0.845392,0 -1.334133,-0.60763 -1.334133,-2.02762 0,-1.45302 0.34344,-2.21915 1.281296,-2.21915 0.805763,0 1.268087,0.76613 1.492644,1.60492 z" />
      <path
         id="path907"
         style="font-style:normal;font-variant:normal;font-weight:bold;font-stretch:normal;font-family:'New Century Schoolbook';-inkscape-font-specification:'New Century Schoolbook Bold';fill:#ffb500;fill-opacity:1;stroke-width:0.275715"
         d="m 47.386151,289.73318 h 2.549383 v -0.35664 h -0.290603 c -0.35665,0 -0.396277,-0.0793 -0.396277,-0.33024 v -1.5719 h 1.770038 v 1.5719 c 0,0.25098 -0.03963,0.33024 -0.396277,0.33024 h -0.290604 v 0.35664 h 2.549384 v -0.35664 h -0.290604 c -0.356649,0 -0.396277,-0.0793 -0.396277,-0.33024 v -3.39477 c 0,-0.25098 0.03963,-0.33023 0.396277,-0.33023 h 0.290604 v -0.35665 h -2.549384 v 0.35665 h 0.290604 c 0.356649,0 0.396277,0.0793 0.396277,0.33023 v 1.4266 h -1.770038 v -1.4266 c 0,-0.25098 0.03963,-0.33023 0.396277,-0.33023 h 0.290603 v -0.35665 h -2.549383 v 0.35665 h 0.290603 c 0.35665,0 0.396277,0.0793 0.396277,0.33023 v 3.39477 c 0,0.25098 -0.03963,0.33024 -0.396277,0.33024 h -0.290603 z" />
      <path
         id="path909"
         style="font-style:normal;font-variant:normal;font-weight:bold;font-stretch:normal;font-family:'New Century Schoolbook';-inkscape-font-specification:'New Century Schoolbook Bold';fill:#ffb500;fill-opacity:1;stroke-width:0.275715"
         d="m 52.881189,289.73318 h 1.91534 v -0.35664 c -0.363254,0 -0.660462,-0.10568 -0.660462,-0.44912 0,-0.1387 0.04623,-0.31042 0.198138,-0.66046 h 1.670969 l 0.25758,0.67367 c 0.03302,0.0859 0.05944,0.17172 0.05944,0.24437 0,0.1387 -0.09246,0.19154 -0.283999,0.19154 h -0.204743 v 0.35664 h 2.311617 v -0.35664 c -0.416091,-0.0132 -0.495346,-0.0991 -0.647253,-0.46233 l -1.684178,-4.04863 h -0.495346 l -1.565295,3.67217 c -0.264185,0.62083 -0.554788,0.81237 -0.87181,0.83879 z m 1.618132,-1.8625 0.680276,-1.64455 0.653857,1.64455 z" />
    </g>
    <g
       transform="translate(20.218094,-285.8935)"
       style="font-style:normal;font-variant:normal;font-weight:normal;font-stretch:normal;font-size:10.5833px;line-height:1.25;font-family:serif;-inkscape-font-specification:serif;letter-spacing:0px;word-spacing:0px;fill:#000080;fill-opacity:1;stroke:none;stroke-width:0.264583"
       id="text12" />
    <g
       style="font-style:normal;font-variant:normal;font-weight:normal;font-stretch:normal;font-size:5.59458px;line-height:1.25;font-family:serif;-inkscape-font-specification:serif;letter-spacing:0px;word-spacing:0px;fill:#ffb500;fill-opacity:1;stroke:none;stroke-width:0.139865"
       id="text16"
       aria-label="ADVOGADOS ASSOCIADOS"
       transform="matrix(1.7277655,0,0,1.7277655,8.9026607,-467.25551)">
      <path
         id="path849"
         style="font-style:normal;font-variant:normal;font-weight:bold;font-stretch:normal;font-size:2.61081px;font-family:'New Century Schoolbook';-inkscape-font-specification:'New Century Schoolbook Bold';fill:#ffb500;fill-opacity:1;stroke-width:0.139865"
         d="m 19.619254,294.2778 h 0.757135 v -0.14098 c -0.143595,0 -0.261081,-0.0418 -0.261081,-0.17754 0,-0.0548 0.01828,-0.12271 0.07832,-0.26108 h 0.660535 l 0.101822,0.2663 c 0.01305,0.0339 0.0235,0.0679 0.0235,0.0966 0,0.0548 -0.03655,0.0757 -0.112265,0.0757 h -0.08094 v 0.14098 h 0.913784 v -0.14098 c -0.164481,-0.005 -0.195811,-0.0392 -0.25586,-0.18276 l -0.665756,-1.60043 h -0.195811 l -0.618762,1.45161 c -0.104432,0.24542 -0.219308,0.32113 -0.344627,0.33158 z m 0.639649,-0.73625 0.268913,-0.65009 0.25847,0.65009 z" />
      <path
         id="path851"
         style="font-style:normal;font-variant:normal;font-weight:bold;font-stretch:normal;font-size:2.61081px;font-family:'New Century Schoolbook';-inkscape-font-specification:'New Century Schoolbook Bold';fill:#ffb500;fill-opacity:1;stroke-width:0.139865"
         d="m 22.436315,292.69043 c 0,-0.10704 0.01566,-0.15665 0.198422,-0.15665 0.326351,0 0.571767,0.13054 0.571767,0.81196 0,0.65532 -0.250638,0.79108 -0.561324,0.79108 -0.174924,0 -0.208865,-0.0287 -0.208865,-0.14099 z m -0.736248,1.58737 h 1.075653 c 0.5796,0 0.947724,-0.33157 0.947724,-0.96339 0,-0.52477 -0.305464,-0.92161 -0.947724,-0.92161 h -1.075653 v 0.14098 h 0.114875 c 0.140984,0 0.156649,0.0313 0.156649,0.13054 v 1.34196 c 0,0.0992 -0.01566,0.13054 -0.156649,0.13054 h -0.114875 z" />
      <path
         id="path853"
         style="font-style:normal;font-variant:normal;font-weight:bold;font-stretch:normal;font-size:2.61081px;font-family:'New Century Schoolbook';-inkscape-font-specification:'New Century Schoolbook Bold';fill:#ffb500;fill-opacity:1;stroke-width:0.139865"
         d="m 23.775656,292.53378 c 0.177535,0.005 0.203643,0.0235 0.274135,0.19842 l 0.637038,1.57171 h 0.214086 l 0.582211,-1.41506 c 0.09138,-0.22192 0.208865,-0.34463 0.373346,-0.35507 v -0.14098 h -0.775411 v 0.14098 h 0.04177 c 0.104433,0 0.216697,0.0627 0.216697,0.16448 0,0.0287 -0.0052,0.0574 -0.01827,0.094 l -0.373346,0.96861 -0.428173,-1.08349 c -0.01305,-0.0392 -0.02089,-0.0653 -0.02089,-0.0888 0,-0.0444 0.03133,-0.0548 0.08877,-0.0548 h 0.130541 v -0.14098 h -0.942503 z" />
      <path
         id="path855"
         style="font-style:normal;font-variant:normal;font-weight:bold;font-stretch:normal;font-size:2.61081px;font-family:'New Century Schoolbook';-inkscape-font-specification:'New Century Schoolbook Bold';fill:#ffb500;fill-opacity:1;stroke-width:0.139865"
         d="m 26.425625,293.3353 c 0,-0.56655 0.154038,-0.85374 0.469946,-0.85374 0.313297,0 0.467335,0.28719 0.467335,0.85374 0,0.56654 -0.154038,0.85373 -0.467335,0.85373 -0.315908,0 -0.469946,-0.28719 -0.469946,-0.85373 z m -0.51694,0 c 0,0.55871 0.433394,0.98166 0.986886,0.98166 0.550881,0 0.984275,-0.42295 0.984275,-0.98166 0,-0.55871 -0.433394,-0.98167 -0.984275,-0.98167 -0.553492,0 -0.986886,0.42296 -0.986886,0.98167 z" />
      <path
         id="path857"
         style="font-style:normal;font-variant:normal;font-weight:bold;font-stretch:normal;font-size:2.61081px;font-family:'New Century Schoolbook';-inkscape-font-specification:'New Century Schoolbook Bold';fill:#ffb500;fill-opacity:1;stroke-width:0.139865"
         d="m 29.882333,293.10555 -0.0235,-0.74147 h -0.112265 l -0.151427,0.13054 c -0.127929,-0.0888 -0.300243,-0.14099 -0.524773,-0.14099 -0.553491,0 -0.986886,0.42296 -0.986886,0.98167 0,0.59787 0.357681,0.98166 0.937281,0.98166 0.232362,0 0.441227,-0.0861 0.603097,-0.25847 l 0.133152,0.25847 h 0.127929 v -0.63964 c 0,-0.0992 0.01566,-0.13055 0.156649,-0.13055 h 0.07571 v -0.14098 h -0.93467 v 0.14098 h 0.167092 c 0.08877,0 0.104433,0.0261 0.104433,0.13055 0,0.31851 -0.09138,0.51171 -0.396844,0.51171 -0.365513,0 -0.456891,-0.39684 -0.456891,-0.80674 0,-0.56132 0.156648,-0.90073 0.529994,-0.90073 0.22453,0 0.436005,0.12793 0.558713,0.45951 l 0.06266,0.17231 z" />
      <path
         id="path859"
         style="font-style:normal;font-variant:normal;font-weight:bold;font-stretch:normal;font-size:2.61081px;font-family:'New Century Schoolbook';-inkscape-font-specification:'New Century Schoolbook Bold';fill:#ffb500;fill-opacity:1;stroke-width:0.139865"
         d="m 30.106858,294.2778 h 0.757135 v -0.14098 c -0.143594,0 -0.261081,-0.0418 -0.261081,-0.17754 0,-0.0548 0.01828,-0.12271 0.07832,-0.26108 h 0.660535 l 0.101822,0.2663 c 0.01305,0.0339 0.0235,0.0679 0.0235,0.0966 0,0.0548 -0.03655,0.0757 -0.112265,0.0757 h -0.08094 v 0.14098 h 0.913784 v -0.14098 c -0.164481,-0.005 -0.195811,-0.0392 -0.25586,-0.18276 l -0.665756,-1.60043 h -0.195811 l -0.618762,1.45161 c -0.104432,0.24542 -0.219308,0.32113 -0.344627,0.33158 z m 0.639649,-0.73625 0.268913,-0.65009 0.25847,0.65009 z" />
      <path
         id="path861"
         style="font-style:normal;font-variant:normal;font-weight:bold;font-stretch:normal;font-size:2.61081px;font-family:'New Century Schoolbook';-inkscape-font-specification:'New Century Schoolbook Bold';fill:#ffb500;fill-opacity:1;stroke-width:0.139865"
         d="m 32.923919,292.69043 c 0,-0.10704 0.01567,-0.15665 0.198422,-0.15665 0.326351,0 0.571767,0.13054 0.571767,0.81196 0,0.65532 -0.250638,0.79108 -0.561324,0.79108 -0.174924,0 -0.208865,-0.0287 -0.208865,-0.14099 z m -0.736248,1.58737 h 1.075653 c 0.5796,0 0.947725,-0.33157 0.947725,-0.96339 0,-0.52477 -0.305465,-0.92161 -0.947725,-0.92161 h -1.075653 v 0.14098 h 0.114875 c 0.140984,0 0.156649,0.0313 0.156649,0.13054 v 1.34196 c 0,0.0992 -0.01566,0.13054 -0.156649,0.13054 h -0.114875 z" />
      <path
         id="path863"
         style="font-style:normal;font-variant:normal;font-weight:bold;font-stretch:normal;font-size:2.61081px;font-family:'New Century Schoolbook';-inkscape-font-specification:'New Century Schoolbook Bold';fill:#ffb500;fill-opacity:1;stroke-width:0.139865"
         d="m 34.931627,293.3353 c 0,-0.56655 0.154038,-0.85374 0.469946,-0.85374 0.313297,0 0.467335,0.28719 0.467335,0.85374 0,0.56654 -0.154038,0.85373 -0.467335,0.85373 -0.315908,0 -0.469946,-0.28719 -0.469946,-0.85373 z m -0.51694,0 c 0,0.55871 0.433394,0.98166 0.986886,0.98166 0.550881,0 0.984275,-0.42295 0.984275,-0.98166 0,-0.55871 -0.433394,-0.98167 -0.984275,-0.98167 -0.553492,0 -0.986886,0.42296 -0.986886,0.98167 z" />
      <path
         id="path865"
         style="font-style:normal;font-variant:normal;font-weight:bold;font-stretch:normal;font-size:2.61081px;font-family:'New Century Schoolbook';-inkscape-font-specification:'New Century Schoolbook Bold';fill:#ffb500;fill-opacity:1;stroke-width:0.139865"
         d="m 36.641703,294.30391 h 0.114876 l 0.164481,-0.16187 c 0.143594,0.11488 0.328962,0.17492 0.540437,0.17492 0.441227,0 0.681422,-0.2898 0.681422,-0.60832 0,-0.32374 -0.180146,-0.52477 -0.61093,-0.61615 l -0.32374,-0.0679 c -0.229752,-0.047 -0.2898,-0.14881 -0.2898,-0.26108 0,-0.18798 0.1932,-0.26891 0.360292,-0.26891 0.32374,0 0.550881,0.28458 0.647481,0.56393 h 0.13054 l -0.03394,-0.68925 h -0.112264 l -0.140984,0.12793 c -0.138373,-0.0966 -0.2898,-0.1436 -0.456892,-0.1436 -0.370735,0 -0.691865,0.1932 -0.691865,0.59527 0,0.2663 0.187979,0.51694 0.660535,0.60832 l 0.266303,0.0522 c 0.195811,0.0392 0.281968,0.11749 0.281968,0.27153 0,0.20886 -0.195811,0.29502 -0.378568,0.29502 -0.349848,0 -0.597875,-0.31852 -0.702308,-0.61615 h -0.12793 z" />
      <path
         id="path867"
         style="font-style:normal;font-variant:normal;font-weight:bold;font-stretch:normal;font-size:2.61081px;font-family:'New Century Schoolbook';-inkscape-font-specification:'New Century Schoolbook Bold';fill:#ffb500;fill-opacity:1;stroke-width:0.139865"
         d="m 38.88177,294.2778 h 0.757135 v -0.14098 c -0.143595,0 -0.261081,-0.0418 -0.261081,-0.17754 0,-0.0548 0.01828,-0.12271 0.07832,-0.26108 h 0.660535 l 0.101822,0.2663 c 0.01305,0.0339 0.0235,0.0679 0.0235,0.0966 0,0.0548 -0.03655,0.0757 -0.112265,0.0757 h -0.08093 v 0.14098 h 0.913784 v -0.14098 c -0.164481,-0.005 -0.195811,-0.0392 -0.25586,-0.18276 l -0.665756,-1.60043 h -0.195811 l -0.618762,1.45161 c -0.104432,0.24542 -0.219308,0.32113 -0.344627,0.33158 z m 0.639649,-0.73625 0.268913,-0.65009 0.25847,0.65009 z" />
      <path
         id="path869"
         style="font-style:normal;font-variant:normal;font-weight:bold;font-stretch:normal;font-size:2.61081px;font-family:'New Century Schoolbook';-inkscape-font-specification:'New Century Schoolbook Bold';fill:#ffb500;fill-opacity:1;stroke-width:0.139865"
         d="m 41.067015,294.30391 h 0.114876 l 0.164481,-0.16187 c 0.143594,0.11488 0.328962,0.17492 0.540437,0.17492 0.441227,0 0.681422,-0.2898 0.681422,-0.60832 0,-0.32374 -0.180146,-0.52477 -0.61093,-0.61615 l -0.32374,-0.0679 c -0.229751,-0.047 -0.2898,-0.14881 -0.2898,-0.26108 0,-0.18798 0.1932,-0.26891 0.360292,-0.26891 0.32374,0 0.550881,0.28458 0.647481,0.56393 h 0.13054 l -0.03394,-0.68925 h -0.112265 l -0.140984,0.12793 c -0.138373,-0.0966 -0.2898,-0.1436 -0.456892,-0.1436 -0.370735,0 -0.691864,0.1932 -0.691864,0.59527 0,0.2663 0.187978,0.51694 0.660534,0.60832 l 0.266303,0.0522 c 0.195811,0.0392 0.281968,0.11749 0.281968,0.27153 0,0.20886 -0.195811,0.29502 -0.378568,0.29502 -0.349848,0 -0.597875,-0.31852 -0.702308,-0.61615 h -0.127929 z" />
      <path
         id="path871"
         style="font-style:normal;font-variant:normal;font-weight:bold;font-stretch:normal;font-size:2.61081px;font-family:'New Century Schoolbook';-inkscape-font-specification:'New Century Schoolbook Bold';fill:#ffb500;fill-opacity:1;stroke-width:0.139865"
         d="m 42.808426,294.30391 h 0.114876 l 0.164481,-0.16187 c 0.143594,0.11488 0.328962,0.17492 0.540438,0.17492 0.441226,0 0.681421,-0.2898 0.681421,-0.60832 0,-0.32374 -0.180146,-0.52477 -0.61093,-0.61615 l -0.32374,-0.0679 c -0.229751,-0.047 -0.2898,-0.14881 -0.2898,-0.26108 0,-0.18798 0.1932,-0.26891 0.360292,-0.26891 0.32374,0 0.550881,0.28458 0.647481,0.56393 h 0.13054 l -0.03394,-0.68925 H 44.07728 l -0.140984,0.12793 c -0.138373,-0.0966 -0.2898,-0.1436 -0.456892,-0.1436 -0.370735,0 -0.691864,0.1932 -0.691864,0.59527 0,0.2663 0.187978,0.51694 0.660535,0.60832 l 0.266302,0.0522 c 0.195811,0.0392 0.281968,0.11749 0.281968,0.27153 0,0.20886 -0.195811,0.29502 -0.378568,0.29502 -0.349848,0 -0.597875,-0.31852 -0.702308,-0.61615 H 42.78754 Z" />
      <path
         id="path873"
         style="font-style:normal;font-variant:normal;font-weight:bold;font-stretch:normal;font-size:2.61081px;font-family:'New Century Schoolbook';-inkscape-font-specification:'New Century Schoolbook Bold';fill:#ffb500;fill-opacity:1;stroke-width:0.139865"
         d="m 45.01456,293.3353 c 0,-0.56655 0.154038,-0.85374 0.469946,-0.85374 0.313297,0 0.467335,0.28719 0.467335,0.85374 0,0.56654 -0.154038,0.85373 -0.467335,0.85373 -0.315908,0 -0.469946,-0.28719 -0.469946,-0.85373 z m -0.516941,0 c 0,0.55871 0.433395,0.98166 0.986887,0.98166 0.55088,0 0.984275,-0.42295 0.984275,-0.98166 0,-0.55871 -0.433395,-0.98167 -0.984275,-0.98167 -0.553492,0 -0.986887,0.42296 -0.986887,0.98167 z" />
      <path
         id="path875"
         style="font-style:normal;font-variant:normal;font-weight:bold;font-stretch:normal;font-size:2.61081px;font-family:'New Century Schoolbook';-inkscape-font-specification:'New Century Schoolbook Bold';fill:#ffb500;fill-opacity:1;stroke-width:0.139865"
         d="m 48.41905,293.10294 -0.0235,-0.74408 h -0.109654 l -0.148816,0.14098 c -0.120098,-0.0914 -0.271525,-0.14621 -0.477779,-0.14621 -0.553491,0 -0.986886,0.42296 -0.986886,0.98167 0,0.59787 0.357681,0.98166 0.937281,0.98166 0.483,0 0.746692,-0.2193 0.848513,-0.68925 l -0.154037,-0.0365 c -0.06266,0.3394 -0.276746,0.56916 -0.587433,0.56916 -0.334183,0 -0.527383,-0.2402 -0.527383,-0.80152 0,-0.57438 0.135762,-0.87724 0.506497,-0.87724 0.318519,0 0.501275,0.30286 0.590043,0.63443 z" />
      <path
         id="path877"
         style="font-style:normal;font-variant:normal;font-weight:bold;font-stretch:normal;font-size:2.61081px;font-family:'New Century Schoolbook';-inkscape-font-specification:'New Century Schoolbook Bold';fill:#ffb500;fill-opacity:1;stroke-width:0.139865"
         d="m 48.677522,294.2778 h 1.007773 v -0.14098 h -0.114876 c -0.140984,0 -0.156649,-0.0313 -0.156649,-0.13054 v -1.34196 c 0,-0.0992 0.01566,-0.13054 0.156649,-0.13054 h 0.114876 v -0.14098 h -1.007773 v 0.14098 h 0.114876 c 0.140983,0 0.156648,0.0313 0.156648,0.13054 v 1.34196 c 0,0.0992 -0.01567,0.13054 -0.156648,0.13054 h -0.114876 z" />
      <path
         id="path879"
         style="font-style:normal;font-variant:normal;font-weight:bold;font-stretch:normal;font-size:2.61081px;font-family:'New Century Schoolbook';-inkscape-font-specification:'New Century Schoolbook Bold';fill:#ffb500;fill-opacity:1;stroke-width:0.139865"
         d="m 49.711398,294.2778 h 0.757135 v -0.14098 c -0.143595,0 -0.261081,-0.0418 -0.261081,-0.17754 0,-0.0548 0.01828,-0.12271 0.07832,-0.26108 h 0.660535 l 0.101822,0.2663 c 0.01305,0.0339 0.0235,0.0679 0.0235,0.0966 0,0.0548 -0.03655,0.0757 -0.112265,0.0757 h -0.08093 v 0.14098 h 0.913784 v -0.14098 c -0.164481,-0.005 -0.195811,-0.0392 -0.25586,-0.18276 l -0.665756,-1.60043 h -0.195811 l -0.618762,1.45161 c -0.104432,0.24542 -0.219308,0.32113 -0.344627,0.33158 z m 0.639649,-0.73625 0.268913,-0.65009 0.25847,0.65009 z" />
      <path
         id="path881"
         style="font-style:normal;font-variant:normal;font-weight:bold;font-stretch:normal;font-size:2.61081px;font-family:'New Century Schoolbook';-inkscape-font-specification:'New Century Schoolbook Bold';fill:#ffb500;fill-opacity:1;stroke-width:0.139865"
         d="m 52.528459,292.69043 c 0,-0.10704 0.01566,-0.15665 0.198422,-0.15665 0.326351,0 0.571767,0.13054 0.571767,0.81196 0,0.65532 -0.250638,0.79108 -0.561324,0.79108 -0.174924,0 -0.208865,-0.0287 -0.208865,-0.14099 z m -0.736248,1.58737 h 1.075653 c 0.5796,0 0.947724,-0.33157 0.947724,-0.96339 0,-0.52477 -0.305464,-0.92161 -0.947724,-0.92161 h -1.075653 v 0.14098 h 0.114875 c 0.140984,0 0.156649,0.0313 0.156649,0.13054 v 1.34196 c 0,0.0992 -0.01566,0.13054 -0.156649,0.13054 h -0.114875 z" />
      <path
         id="path883"
         style="font-style:normal;font-variant:normal;font-weight:bold;font-stretch:normal;font-size:2.61081px;font-family:'New Century Schoolbook';-inkscape-font-specification:'New Century Schoolbook Bold';fill:#ffb500;fill-opacity:1;stroke-width:0.139865"
         d="m 54.536168,293.3353 c 0,-0.56655 0.154038,-0.85374 0.469946,-0.85374 0.313297,0 0.467335,0.28719 0.467335,0.85374 0,0.56654 -0.154038,0.85373 -0.467335,0.85373 -0.315908,0 -0.469946,-0.28719 -0.469946,-0.85373 z m -0.51694,0 c 0,0.55871 0.433394,0.98166 0.986886,0.98166 0.550881,0 0.984275,-0.42295 0.984275,-0.98166 0,-0.55871 -0.433394,-0.98167 -0.984275,-0.98167 -0.553492,0 -0.986886,0.42296 -0.986886,0.98167 z" />
      <path
         id="path885"
         style="font-style:normal;font-variant:normal;font-weight:bold;font-stretch:normal;font-size:2.61081px;font-family:'New Century Schoolbook';-inkscape-font-specification:'New Century Schoolbook Bold';fill:#ffb500;fill-opacity:1;stroke-width:0.139865"
         d="m 56.246245,294.30391 h 0.114875 l 0.164481,-0.16187 c 0.143595,0.11488 0.328962,0.17492 0.540438,0.17492 0.441227,0 0.681422,-0.2898 0.681422,-0.60832 0,-0.32374 -0.180146,-0.52477 -0.61093,-0.61615 l -0.32374,-0.0679 c -0.229752,-0.047 -0.2898,-0.14881 -0.2898,-0.26108 0,-0.18798 0.1932,-0.26891 0.360291,-0.26891 0.323741,0 0.550881,0.28458 0.647481,0.56393 h 0.130541 l -0.03394,-0.68925 h -0.112265 l -0.140983,0.12793 c -0.138373,-0.0966 -0.2898,-0.1436 -0.456892,-0.1436 -0.370735,0 -0.691865,0.1932 -0.691865,0.59527 0,0.2663 0.187979,0.51694 0.660535,0.60832 l 0.266303,0.0522 c 0.195811,0.0392 0.281967,0.11749 0.281967,0.27153 0,0.20886 -0.19581,0.29502 -0.378567,0.29502 -0.349849,0 -0.597876,-0.31852 -0.702308,-0.61615 h -0.12793 z" />
    </g>
  </g>
</svg>
