<?xml version="1.0" encoding="UTF-8" standalone="no"?>
<svg
   xmlns:dc="http://purl.org/dc/elements/1.1/"
   xmlns:cc="http://creativecommons.org/ns#"
   xmlns:rdf="http://www.w3.org/1999/02/22-rdf-syntax-ns#"
   xmlns:svg="http://www.w3.org/2000/svg"
   xmlns="http://www.w3.org/2000/svg"
   xmlns:sodipodi="http://sodipodi.sourceforge.net/DTD/sodipodi-0.dtd"
   xmlns:inkscape="http://www.inkscape.org/namespaces/inkscape"
   inkscape:version="1.0.2 (e86c870879, 2021-01-15, custom)"
   sodipodi:docname="banner4.svg"
   viewBox="0 0 1200 500"
   height="500"
   width="1200"
   id="svg2"
   version="1.1">
  <metadata
     id="metadata8">
    <rdf:RDF>
      <cc:Work
         rdf:about="">
        <dc:format>image/svg+xml</dc:format>
        <dc:type
           rdf:resource="http://purl.org/dc/dcmitype/StillImage" />
        <dc:title />
      </cc:Work>
    </rdf:RDF>
  </metadata>
  <defs
     id="defs6" />
  <sodipodi:namedview
     showguides="false"
     inkscape:current-layer="g10"
     inkscape:window-maximized="1"
     inkscape:window-y="0"
     inkscape:window-x="50"
     inkscape:cy="194.86211"
     inkscape:cx="834.7461"
     inkscape:zoom="0.32209478"
     showgrid="false"
     id="namedview4"
     inkscape:window-height="750"
     inkscape:window-width="1316"
     inkscape:pageshadow="2"
     inkscape:pageopacity="0"
     guidetolerance="10"
     gridtolerance="10"
     objecttolerance="10"
     borderopacity="1"
     bordercolor="#666666"
     pagecolor="#ffffff"
     inkscape:document-rotation="0" />
  <g
     id="g10"
     inkscape:label="Image"
     inkscape:groupmode="layer">
    <rect
       ry="2.9724712"
       y="-9.6515341"
       x="-0.17291474"
       height="518.07953"
       width="1209.0216"
       id="rect17058"
       style="fill:#ffffff;fill-rule:evenodd;stroke-width:1.56899" />
    <g
       id="g35"
       transform="translate(601.45226,86.884059)">
      <path
         id="path9"
         d="m 115.75,47.18 c 0,12.77 -9.99,22.18 -22.25,22.18 C 81.24,69.36 71.25,59.95 71.25,47.18 71.25,34.32 81.24,25 93.5,25 c 12.26,0 22.25,9.32 22.25,22.18 z m -9.74,0 c 0,-7.98 -5.79,-13.44 -12.51,-13.44 -6.72,0 -12.51,5.46 -12.51,13.44 0,7.9 5.79,13.44 12.51,13.44 6.72,0 12.51,-5.55 12.51,-13.44 z"
         fill="#ea4335" />
      <path
         id="path11"
         d="m 163.75,47.18 c 0,12.77 -9.99,22.18 -22.25,22.18 -12.26,0 -22.25,-9.41 -22.25,-22.18 0,-12.85 9.99,-22.18 22.25,-22.18 12.26,0 22.25,9.32 22.25,22.18 z m -9.74,0 c 0,-7.98 -5.79,-13.44 -12.51,-13.44 -6.72,0 -12.51,5.46 -12.51,13.44 0,7.9 5.79,13.44 12.51,13.44 6.72,0 12.51,-5.55 12.51,-13.44 z"
         fill="#fbbc05" />
      <path
         id="path13"
         d="m 209.75,26.34 v 39.82 c 0,16.38 -9.66,23.07 -21.08,23.07 -10.75,0 -17.22,-7.19 -19.66,-13.07 l 8.48,-3.53 c 1.51,3.61 5.21,7.87 11.17,7.87 7.31,0 11.84,-4.51 11.84,-13 v -3.19 h -0.34 c -2.18,2.69 -6.38,5.04 -11.68,5.04 -11.09,0 -21.25,-9.66 -21.25,-22.09 0,-12.52 10.16,-22.26 21.25,-22.26 5.29,0 9.49,2.35 11.68,4.96 h 0.34 v -3.61 h 9.25 z m -8.56,20.92 c 0,-7.81 -5.21,-13.52 -11.84,-13.52 -6.72,0 -12.35,5.71 -12.35,13.52 0,7.73 5.63,13.36 12.35,13.36 6.63,0 11.84,-5.63 11.84,-13.36 z"
         fill="#4285f4" />
      <path
         id="path15"
         d="m 225,3 v 65 h -9.5 V 3 Z"
         fill="#34a853" />
      <path
         id="path17"
         d="m 262.02,54.48 7.56,5.04 c -2.44,3.61 -8.32,9.83 -18.48,9.83 -12.6,0 -22.01,-9.74 -22.01,-22.18 0,-13.19 9.49,-22.18 20.92,-22.18 11.51,0 17.14,9.16 18.98,14.11 L 270,41.62 240.35,53.9 c 2.27,4.45 5.8,6.72 10.75,6.72 4.96,0 8.4,-2.44 10.92,-6.14 z m -23.27,-7.98 19.82,-8.23 c -1.09,-2.77 -4.37,-4.7 -8.23,-4.7 -4.95,0 -11.84,4.37 -11.59,12.93 z"
         fill="#ea4335" />
      <path
         id="path19"
         d="M 35.29,41.41 V 32 H 67 c 0.31,1.64 0.47,3.58 0.47,5.68 0,7.06 -1.93,15.79 -8.15,22.01 -6.05,6.3 -13.78,9.66 -24.02,9.66 C 16.32,69.35 0.36,53.89 0.36,34.91 0.36,15.93 16.32,0.47 35.3,0.47 c 10.5,0 17.98,4.12 23.6,9.49 L 52.26,16.6 C 48.23,12.82 42.77,9.88 35.29,9.88 c -13.86,0 -24.7,11.17 -24.7,25.03 0,13.86 10.84,25.03 24.7,25.03 8.99,0 14.11,-3.61 17.39,-6.89 2.66,-2.66 4.41,-6.46 5.1,-11.65 z"
         fill="#4285f4" />
    </g>
    <g
       id="g192"
       transform="matrix(0.20594647,0,0,0.20594647,905.09889,59.395191)">
      <path
         d="M 871.8,990 H 128.3 C 91,990 60.7,959.7 60.7,922.4 V 178.9 c 0,-37.4 30.3,-67.6 67.6,-67.6 h 67.6 v 33.8 c 0,56 45.4,101.4 101.4,101.4 55.9,0 101.4,-45.4 101.4,-101.4 v -33.7 h 202.8 v 33.8 c 0,56 45.4,101.4 101.4,101.4 55.9,0 101.4,-45.4 101.4,-101.4 v -33.8 h 67.6 c 37.3,0 67.6,30.3 67.6,67.6 v 743.4 c -0.2,37.3 -30.4,67.6 -67.7,67.6 z m 0,-679 H 128.3 V 922.4 H 871.7 Z M 701.7,212.7 c -36.8,0 -66.5,-29.8 -66.5,-66.5 V 76.5 c 0,-36.8 29.7,-66.5 66.5,-66.5 36.8,0 66.5,29.7 66.5,66.5 v 69.7 c 0.1,36.7 -29.7,66.5 -66.5,66.5 z m -405.5,0 c -36.8,0 -66.5,-29.8 -66.5,-66.5 V 76.5 c 0,-36.8 29.7,-66.5 66.5,-66.5 36.8,0 66.5,29.7 66.5,66.5 v 69.7 c 0.1,36.7 -29.7,66.5 -66.5,66.5 z"
         id="path190"
         sodipodi:nodetypes="ssssscsssccssscsscscccccssssscsssssscs" />
      <text
         xml:space="preserve"
         style="font-style:normal;font-variant:normal;font-weight:bold;font-stretch:normal;font-size:492.568px;line-height:1.25;font-family:C059;-inkscape-font-specification:'C059, Bold';font-variant-ligatures:normal;font-variant-caps:normal;font-variant-numeric:normal;font-variant-east-asian:normal;letter-spacing:0px;word-spacing:0px;fill:#000000;stroke-width:12.3142"
         x="218.31406"
         y="774.98438"
         id="text202"><tspan
           sodipodi:role="line"
           id="tspan200"
           x="218.31406"
           y="774.98438"
           style="font-style:normal;font-variant:normal;font-weight:bold;font-stretch:normal;font-size:492.568px;font-family:C059;-inkscape-font-specification:'C059, Bold';font-variant-ligatures:normal;font-variant-caps:normal;font-variant-numeric:normal;font-variant-east-asian:normal;fill:#000000;stroke-width:12.3142">07</tspan></text>
    </g>
  </g>
</svg>
