<?xml version="1.0" encoding="UTF-8" standalone="no"?>
<svg
   xmlns:dc="http://purl.org/dc/elements/1.1/"
   xmlns:cc="http://creativecommons.org/ns#"
   xmlns:rdf="http://www.w3.org/1999/02/22-rdf-syntax-ns#"
   xmlns:svg="http://www.w3.org/2000/svg"
   xmlns="http://www.w3.org/2000/svg"
   xmlns:sodipodi="http://sodipodi.sourceforge.net/DTD/sodipodi-0.dtd"
   xmlns:inkscape="http://www.inkscape.org/namespaces/inkscape"
   sodipodi:docname="netjapa-logo.svg"
   inkscape:version="1.0 (4035a4fb49, 2020-05-01)"
   id="svg8"
   version="1.1"
   viewBox="0 0 39.952081 5.8208335"
   height="22"
   width="151">
  <defs
     id="defs2" />
  <sodipodi:namedview
     inkscape:document-rotation="0"
     inkscape:pagecheckerboard="false"
     inkscape:window-maximized="1"
     inkscape:window-y="0"
     inkscape:window-x="50"
     inkscape:window-height="744"
     inkscape:window-width="1316"
     borderlayer="false"
     width="150px"
     units="px"
     showgrid="false"
     inkscape:current-layer="text817"
     inkscape:document-units="px"
     inkscape:cy="39.796949"
     inkscape:cx="78.011584"
     inkscape:zoom="3.8006101"
     inkscape:pageshadow="2"
     inkscape:pageopacity="0.0"
     borderopacity="1.0"
     bordercolor="#666666"
     pagecolor="#ffffff"
     id="base" />
  <metadata
     id="metadata5">
    <rdf:RDF>
      <cc:Work
         rdf:about="">
        <dc:format>image/svg+xml</dc:format>
        <dc:type
           rdf:resource="http://purl.org/dc/dcmitype/StillImage" />
        <dc:title />
      </cc:Work>
    </rdf:RDF>
  </metadata>
  <g
     transform="translate(0,-291.17915)"
     id="layer1"
     inkscape:groupmode="layer"
     inkscape:label="Layer 1">
    <g
       style="font-style:italic;font-variant:normal;font-weight:500;font-stretch:normal;font-size:8.24705px;line-height:1.25;font-family:'Antique Olive T Compact';-inkscape-font-specification:'Antique Olive T Compact, Medium Italic';font-variant-ligatures:normal;font-variant-caps:normal;font-variant-numeric:normal;font-feature-settings:normal;text-align:start;letter-spacing:0px;word-spacing:0px;writing-mode:lr-tb;text-anchor:start;fill:#ff0000;fill-opacity:1;stroke:none;stroke-width:0.206178"
       id="text817"
       aria-label="NETJAPA">
      <path
         id="path9"
         style="font-style:italic;font-variant:normal;font-weight:500;font-stretch:normal;font-size:8.24705px;font-family:'Antique Olive T Compact';-inkscape-font-specification:'Antique Olive T Compact, Medium Italic';font-variant-ligatures:normal;font-variant-caps:normal;font-variant-numeric:normal;font-feature-settings:normal;text-align:start;writing-mode:lr-tb;text-anchor:start;fill:#ffffff;stroke-width:0.206178"
         d="M 7.2870818,291.33442 H 5.2748015 l -0.2639056,1.10511 c -0.1401999,0.56904 -0.2391645,1.1051 -0.2721527,1.42674 H 4.697508 c -0.1072117,-0.7175 -0.156694,-0.93192 -0.3463761,-1.63292 L 4.1284615,291.33442 H 1.6213582 l -1.31952802,5.50079 H 2.3553457 l 0.4041055,-1.69065 c 0.1319528,-0.55255 0.2309174,-1.1051 0.2226703,-1.31128 h 0.041235 c 0.1072116,0.53606 0.2721526,1.2618 0.3876113,1.70714 l 0.3463761,1.29479 h 2.2102095 z" />
      <path
         id="path11"
         style="font-style:italic;font-variant:normal;font-weight:500;font-stretch:normal;font-size:8.24705px;font-family:'Antique Olive T Compact';-inkscape-font-specification:'Antique Olive T Compact, Medium Italic';font-variant-ligatures:normal;font-variant-caps:normal;font-variant-numeric:normal;font-feature-settings:normal;text-align:start;writing-mode:lr-tb;text-anchor:start;fill:#ffffff;stroke-width:0.206178"
         d="M 12.713626,291.33442 H 8.06229 l -1.319528,5.50079 h 4.651336 l 0.329882,-1.37726 H 9.1921359 l 0.1484469,-0.63503 h 2.5400912 l 0.296894,-1.23705 H 9.6374766 l 0.156694,-0.65977 h 2.5400914 z" />
      <path
         id="path13"
         style="font-style:italic;font-variant:normal;font-weight:500;font-stretch:normal;font-size:8.24705px;font-family:'Antique Olive T Compact';-inkscape-font-specification:'Antique Olive T Compact, Medium Italic';font-variant-ligatures:normal;font-variant-caps:normal;font-variant-numeric:normal;font-feature-settings:normal;text-align:start;writing-mode:lr-tb;text-anchor:start;fill:#ffffff;stroke-width:0.206178"
         d="m 18.222651,291.33442 h -4.989466 l -0.44534,1.85559 h 1.410245 l -0.874187,3.6452 h 2.201962 l 0.874188,-3.6452 h 1.377257 z" />
      <path
         id="path15"
         style="font-style:italic;font-variant:normal;font-weight:500;font-stretch:normal;font-size:8.24705px;font-family:'Antique Olive T Compact';-inkscape-font-specification:'Antique Olive T Compact, Medium Italic';font-variant-ligatures:normal;font-variant-caps:normal;font-variant-numeric:normal;font-feature-settings:normal;text-align:start;writing-mode:lr-tb;text-anchor:start;fill:#ffffff;stroke-width:0.206178"
         d="m 21.471966,291.33442 h -2.201962 c -0.610282,2.61432 -0.78347,3.32356 -0.874188,3.53799 -0.148447,0.33813 -0.379364,0.46183 -0.874187,0.46183 -0.214423,0 -0.338129,-0.0165 -0.659764,-0.0825 l -0.338129,1.402 c 0.593787,0.19793 1.047375,0.27215 1.608175,0.27215 0.610281,0 1.105104,-0.099 1.484469,-0.30514 0.50307,-0.27215 0.742234,-0.63502 0.940163,-1.45973 z" />
      <path
         id="path17"
         style="font-style:italic;font-variant:normal;font-weight:500;font-stretch:normal;font-size:8.24705px;font-family:'Antique Olive T Compact';-inkscape-font-specification:'Antique Olive T Compact, Medium Italic';font-variant-ligatures:normal;font-variant-caps:normal;font-variant-numeric:normal;font-feature-settings:normal;text-align:start;writing-mode:lr-tb;text-anchor:start;fill:#ffffff;stroke-width:0.206178"
         d="m 26.46142,291.33442 h -3.274079 l -2.886467,5.50079 h 2.185468 l 0.445341,-0.89069 h 1.50921 v 0.89069 h 2.251445 z m -1.92981,1.25355 c -0.03299,0.37112 -0.04124,0.61853 -0.04124,0.8577 v 1.1216 h -0.948411 l 0.404106,-0.80821 c 0.22267,-0.47009 0.404105,-0.8577 0.544305,-1.17109 z" />
      <path
         id="path19"
         style="font-style:italic;font-variant:normal;font-weight:500;font-stretch:normal;font-size:8.24705px;font-family:'Antique Olive T Compact';-inkscape-font-specification:'Antique Olive T Compact, Medium Italic';font-variant-ligatures:normal;font-variant-caps:normal;font-variant-numeric:normal;font-feature-settings:normal;text-align:start;writing-mode:lr-tb;text-anchor:start;fill:#ffffff;stroke-width:0.206178"
         d="m 28.465453,291.33442 -1.319528,5.50079 h 2.21021 l 0.36287,-1.52571 h 0.544305 c 1.171082,0 1.558693,-0.066 2.037022,-0.32988 0.775223,-0.43709 1.319528,-1.43499 1.319528,-2.41639 0,-0.46183 -0.214423,-0.86594 -0.552552,-1.03088 -0.288647,-0.14845 -0.651517,-0.19793 -1.48447,-0.19793 z m 1.863834,1.42674 h 0.197929 c 0.692752,0 0.86594,0.0742 0.86594,0.38761 0,0.27216 -0.131952,0.55256 -0.338129,0.70925 -0.156694,0.12371 -0.395858,0.16494 -0.898928,0.16494 h -0.123706 z" />
      <path
         id="path21"
         style="font-style:italic;font-variant:normal;font-weight:500;font-stretch:normal;font-size:8.24705px;font-family:'Antique Olive T Compact';-inkscape-font-specification:'Antique Olive T Compact, Medium Italic';font-variant-ligatures:normal;font-variant-caps:normal;font-variant-numeric:normal;font-feature-settings:normal;text-align:start;writing-mode:lr-tb;text-anchor:start;fill:#ffffff;stroke-width:0.206178"
         d="m 38.485605,291.33442 h -3.274079 l -2.886467,5.50079 h 2.185468 l 0.445341,-0.89069 h 1.50921 v 0.89069 h 2.251445 z m -1.929809,1.25355 c -0.03299,0.37112 -0.04124,0.61853 -0.04124,0.8577 v 1.1216 h -0.94841 l 0.404105,-0.80821 c 0.22267,-0.47009 0.404105,-0.8577 0.544305,-1.17109 z" />
    </g>
  </g>
</svg>
