<?xml version="1.0" encoding="UTF-8" standalone="no"?>
<svg
   xmlns:dc="http://purl.org/dc/elements/1.1/"
   xmlns:cc="http://creativecommons.org/ns#"
   xmlns:rdf="http://www.w3.org/1999/02/22-rdf-syntax-ns#"
   xmlns:svg="http://www.w3.org/2000/svg"
   xmlns="http://www.w3.org/2000/svg"
   xmlns:sodipodi="http://sodipodi.sourceforge.net/DTD/sodipodi-0.dtd"
   xmlns:inkscape="http://www.inkscape.org/namespaces/inkscape"
   sodipodi:docname="vitrineonline.svg"
   inkscape:version="1.0 (4035a4fb49, 2020-05-01)"
   id="svg113"
   version="1.1"
   viewBox="0 0 119.0625 66.145835"
   height="250"
   width="450">
  <defs
     id="defs107" />
  <sodipodi:namedview
     inkscape:window-maximized="1"
     inkscape:window-y="0"
     inkscape:window-x="50"
     inkscape:window-height="744"
     inkscape:window-width="1316"
     units="px"
     showgrid="false"
     inkscape:document-rotation="0"
     inkscape:current-layer="layer1"
     inkscape:document-units="mm"
     inkscape:cy="187.8686"
     inkscape:cx="191.24423"
     inkscape:zoom="0.95015253"
     inkscape:pageshadow="2"
     inkscape:pageopacity="0.0"
     borderopacity="1.0"
     bordercolor="#666666"
     pagecolor="#ffffff"
     id="base" />
  <metadata
     id="metadata110">
    <rdf:RDF>
      <cc:Work
         rdf:about="">
        <dc:format>image/svg+xml</dc:format>
        <dc:type
           rdf:resource="http://purl.org/dc/dcmitype/StillImage" />
        <dc:title></dc:title>
      </cc:Work>
    </rdf:RDF>
  </metadata>
  <g
     id="layer1"
     inkscape:groupmode="layer"
     inkscape:label="Layer 1">
    <rect
       ry="0.78373063"
       y="0.42884967"
       x="0.62958664"
       height="65.563148"
       width="117.93847"
       id="rect211"
       style="fill:#f9f9f9;fill-rule:evenodd;stroke-width:0.260234" />
    <g
       transform="matrix(0.1841157,0,0,-0.1841157,9.4171581,39.21239)"
       id="g10">
      <g
         transform="scale(0.1)"
         id="g12">
        <path
           id="path14"
           style="fill:#3a55ae;fill-opacity:1;fill-rule:nonzero;stroke:none"
           d="M 585.199,675.316 H 430.027 c -36.742,0 -69.738,-20.414 -86.547,-51.804 -16.812,31.386 -49.8,51.804 -86.546,51.804 H 98.1836 C 66.625,675.316 36.9844,660.148 18.5352,634.547 0.0820313,608.941 -4.94141,576.031 5.03906,546.09 L 160.188,80.5977 C 173.555,40.4961 211.074,13.457 253.332,13.457 h 175.801 c 42.199,0 79.68,26.9649 93.094,66.9727 L 678.289,545.922 c 10.039,29.957 5.055,62.906 -13.394,88.551 -18.446,25.644 -48.11,40.843 -79.696,40.843 z m 0,-98.183 L 429.133,111.641 H 253.332 L 98.1836,577.133 H 256.934 l 85.203,-307.641 h 1.793 l 86.097,307.641 h 155.172" />
        <path
           id="path16"
           style="fill:#3a55ae;fill-opacity:1;fill-rule:nonzero;stroke:none"
           d="M 769.066,850.207 H 616.602 c -54.231,0 -98.184,-43.961 -98.184,-98.184 V 635.43 c 0,-10.153 1.535,-19.938 4.398,-29.145 -2.863,-9.215 -4.398,-19 -4.398,-29.152 V 111.641 c 0,-54.2308 43.953,-98.184 98.184,-98.184 h 152.464 c 54.223,0 98.184,43.9532 98.184,98.184 v 465.492 c 0,10.152 -1.539,19.937 -4.398,29.152 2.859,9.207 4.398,18.992 4.398,29.145 v 116.593 c 0,54.223 -43.961,98.184 -98.184,98.184 z m 0,-273.074 V 111.641 H 616.602 v 465.492 h 152.464 m 0,174.89 V 635.43 H 616.602 v 116.593 h 152.464" />
        <path
           id="path18"
           style="fill:#3a55ae;fill-opacity:1;fill-rule:nonzero;stroke:none"
           d="M 1040.84,816.129 H 888.371 c -54.223,0 -98.176,-43.961 -98.176,-98.184 v -44.886 c -44.113,-9.637 -77.14,-48.922 -77.14,-95.926 v -98.664 c 0,-47.004 33.027,-86.289 77.14,-95.93 V 271.281 c 0,-67.07 7.207,-143.039 60.668,-197.9607 55.508,-57.0312 136.442,-64.33592 200.747,-64.33592 19.49,0 37.47,1.32032 54.85,2.59762 11.22,0.8282 21.81,1.6016 31.71,1.9258 52.97,1.707 95.03,45.1367 95.03,98.1332 v 112.121 c 0,52.879 -41.81,95.996 -94.17,98.093 v 58.508 c 52.36,2.11 94.17,45.223 94.17,98.106 v 98.664 c 0,52.883 -41.81,95.996 -94.17,98.101 v 42.711 c 0,54.223 -43.96,98.184 -98.19,98.184 z m 0,-98.184 V 577.133 h 94.17 v -98.664 h -94.17 v -211.66 c 0,-36.77 21.53,-44.844 54.72,-44.844 12.54,0 26,1.797 39.45,1.797 V 111.641 c -27.8,-0.899 -55.61,-4.473 -83.4,-4.473 -130.059,0 -163.239,37.656 -163.239,164.113 v 207.188 h -77.133 v 98.664 h 77.133 v 140.812 h 152.469" />
        <path
           id="path20"
           style="fill:#3a55ae;fill-opacity:1;fill-rule:nonzero;stroke:none"
           d="m 1475.84,684.281 c -36.03,0 -69.64,-6.336 -99.81,-18.328 -12.71,6.004 -26.92,9.363 -41.9,9.363 h -147.98 c -54.22,0 -98.18,-43.957 -98.18,-98.183 V 111.641 c 0,-54.2308 43.96,-98.184 98.18,-98.184 h 152.47 c 54.22,0 98.18,43.9532 98.18,98.184 v 230.5 c 0,8.339 0,12.136 16.62,12.136 8.91,0 17.71,-1.496 32.45,-5.515 8.51,-2.317 17.2,-3.457 25.84,-3.457 21.31,0 42.29,6.933 59.6,20.144 24.32,18.574 38.59,47.434 38.59,78.039 v 139.024 c 0,45.707 -31.54,85.371 -76.07,95.664 -17.54,4.051 -37.05,6.105 -57.99,6.105 z m 0,-98.183 c 11.66,0 24.23,-0.895 35.88,-3.586 V 443.488 c -19.74,5.379 -37.67,8.973 -58.3,8.973 -75.33,0 -114.8,-52.031 -114.8,-110.32 v -230.5 h -152.47 v 465.492 h 147.98 V 495.52 h 1.8 c 22.42,59.191 74.44,90.578 139.91,90.578" />
        <path
           id="path22"
           style="fill:#3a55ae;fill-opacity:1;fill-rule:nonzero;stroke:none"
           d="m 1698.3,850.207 h -152.47 c -54.22,0 -98.18,-43.961 -98.18,-98.184 V 635.43 c 0,-10.153 1.54,-19.938 4.4,-29.145 -2.86,-9.215 -4.4,-19 -4.4,-29.152 V 111.641 c 0,-54.2308 43.96,-98.184 98.18,-98.184 h 152.47 c 54.23,0 98.18,43.9532 98.18,98.184 v 465.492 c 0,10.152 -1.54,19.937 -4.4,29.152 2.86,9.207 4.4,18.992 4.4,29.145 v 116.593 c 0,54.223 -43.95,98.184 -98.18,98.184 z m 0,-273.074 V 111.641 h -152.47 v 465.492 h 152.47 m 0,174.89 V 635.43 h -152.47 v 116.593 h 152.47" />
        <path
           id="path24"
           style="fill:#3a55ae;fill-opacity:1;fill-rule:nonzero;stroke:none"
           d="m 2079.48,688.773 c -37.13,0 -74.05,-7.859 -107.86,-22 -12.25,5.489 -25.83,8.543 -40.12,8.543 h -147.99 c -54.23,0 -98.18,-43.957 -98.18,-98.183 V 111.641 c 0,-54.2308 43.95,-98.184 98.18,-98.184 h 152.47 c 32.61,0 61.51,15.9063 79.37,40.3828 17.86,-24.4765 46.76,-40.3828 79.38,-40.3828 h 152.48 c 54.22,0 98.18,43.9532 98.18,98.184 v 298.672 c 0,43.507 -4.17,108.132 -40.22,166.773 -31.31,50.949 -95.89,111.687 -225.69,111.687 z m 0,-98.183 c 155.17,0 167.73,-113.02 167.73,-180.277 V 111.641 H 2094.73 V 336.77 c 0,63.66 7.18,128.242 -76.23,128.242 -57.4,0 -82.52,-48.418 -82.52,-99.543 V 111.641 h -152.47 v 465.492 h 147.99 v -63.68 h 1.79 c 27.81,47.535 90.59,77.137 146.19,77.137" />
        <path
           id="path26"
           style="fill:#3a55ae;fill-opacity:1;fill-rule:nonzero;stroke:none"
           d="m 3074.2,688.773 c -195.56,0 -343.03,-148.246 -343.03,-344.828 C 2731.17,147.863 2878.64,0 3074.2,0 c 196.07,0 343.92,147.863 343.92,343.945 0,196.582 -147.85,344.828 -343.92,344.828 z m 0,-473.976 c 70.85,0 93.26,69.941 93.26,129.148 0,59.192 -22.41,130.043 -93.26,130.043 -70.86,0 -92.38,-70.851 -92.38,-130.043 0,-59.207 21.52,-129.148 92.38,-129.148 m 0,375.793 c 144.39,0 245.73,-106.742 245.73,-246.645 0,-139.922 -101.34,-245.7614 -245.73,-245.7614 -144.4,0 -244.85,105.8394 -244.85,245.7614 0,139.903 100.45,246.645 244.85,246.645" />
        <path
           id="path28"
           style="fill:#3a55ae;fill-opacity:1;fill-rule:nonzero;stroke:none"
           d="m 3673.34,688.773 c -37.14,0 -74.05,-7.859 -107.86,-22 -12.24,5.489 -25.83,8.543 -40.12,8.543 h -147.99 c -54.22,0 -98.19,-43.957 -98.19,-98.183 V 111.641 c 0,-54.2308 43.97,-98.184 98.19,-98.184 h 152.47 c 32.61,0 61.51,15.9063 79.37,40.3828 17.85,-24.4765 46.76,-40.3828 79.38,-40.3828 h 152.48 c 54.23,0 98.18,43.9532 98.18,98.184 v 298.672 c 0,43.507 -4.17,108.132 -40.21,166.773 -31.32,50.949 -95.9,111.687 -225.7,111.687 z m 0,-98.183 c 155.17,0 167.73,-113.02 167.73,-180.277 V 111.641 H 3688.59 V 336.77 c 0,63.66 7.18,128.242 -76.23,128.242 -57.41,0 -82.52,-48.418 -82.52,-99.543 V 111.641 h -152.47 v 465.492 h 147.99 v -63.68 h 1.79 c 27.8,47.535 90.6,77.137 146.19,77.137" />
        <path
           id="path30"
           style="fill:#3a55ae;fill-opacity:1;fill-rule:nonzero;stroke:none"
           d="m 4077.87,850.207 h -152.46 c -54.23,0 -98.18,-43.961 -98.18,-98.184 V 111.641 c 0,-54.2308 43.95,-98.184 98.18,-98.184 h 152.46 c 54.23,0 98.19,43.9532 98.19,98.184 v 640.382 c 0,54.223 -43.96,98.184 -98.19,98.184 z m 0,-98.184 V 111.641 h -152.46 v 640.382 h 152.46" />
        <path
           id="path32"
           style="fill:#3a55ae;fill-opacity:1;fill-rule:nonzero;stroke:none"
           d="m 4320.95,850.207 h -152.46 c -54.23,0 -98.18,-43.961 -98.18,-98.184 V 635.43 c 0,-10.153 1.53,-19.938 4.39,-29.145 -2.86,-9.215 -4.39,-19 -4.39,-29.152 V 111.641 c 0,-54.2308 43.95,-98.184 98.18,-98.184 h 152.46 c 54.23,0 98.18,43.9532 98.18,98.184 v 465.492 c 0,10.152 -1.53,19.937 -4.39,29.152 2.86,9.207 4.39,18.992 4.39,29.145 v 116.593 c 0,54.223 -43.95,98.184 -98.18,98.184 z m 0,-273.074 V 111.641 h -152.46 v 465.492 h 152.46 m 0,174.89 V 635.43 h -152.46 v 116.593 h 152.46" />
        <path
           id="path34"
           style="fill:#3a55ae;fill-opacity:1;fill-rule:nonzero;stroke:none"
           d="m 4702.13,688.773 c -37.14,0 -74.05,-7.859 -107.86,-22 -12.25,5.489 -25.83,8.543 -40.12,8.543 h -147.98 c -54.23,0 -98.19,-43.957 -98.19,-98.183 V 111.641 c 0,-54.2308 43.96,-98.184 98.19,-98.184 h 152.46 c 32.62,0 61.53,15.9063 79.38,40.3907 17.85,-24.4844 46.76,-40.3907 79.39,-40.3907 h 152.46 c 54.23,0 98.18,43.9532 98.18,98.184 v 298.672 c 0,43.507 -4.17,108.132 -40.21,166.773 -31.32,50.949 -95.9,111.687 -225.7,111.687 z m 0,-98.183 c 155.17,0 167.73,-113.02 167.73,-180.277 V 111.641 H 4717.4 V 336.77 c 0,63.66 7.15,128.242 -76.25,128.242 -57.4,0 -82.52,-48.418 -82.52,-99.543 V 111.641 h -152.46 v 465.492 h 147.98 v -63.68 h 1.79 c 27.81,47.535 90.6,77.137 146.19,77.137" />
        <path
           id="path36"
           style="fill:#3a55ae;fill-opacity:1;fill-rule:nonzero;stroke:none"
           d="m 2552.65,688.773 c -45.63,0 -91.54,-9.593 -136.48,-28.519 -130.71,-54.774 -212.01,-172.367 -212.01,-306.816 0,-44.833 9.19,-89.383 27.32,-132.411 55.38,-131.8356 170.71,-207.4997 316.36,-207.4997 31.02,0 62.75,3.4649 94.33,10.3204 125.07,27.0195 198.26,105.4613 230.75,149.8123 16.87,23.031 22.87,52.258 16.47,80.07 -6.42,27.825 -24.61,51.465 -49.87,64.786 l -6.34,3.347 c 37.93,22.992 56.29,69.321 42.86,112.875 -46.87,151.938 -176.83,254.028 -323.39,254.035 z M 2440.34,353.438 h 1.48 l 180.21,73.73 c -16.76,34.855 -55.13,56.266 -92.84,56.266 -12.21,0 -24.36,-2.246 -35.68,-7.016 -48.44,-20.43 -66.29,-68.598 -53.17,-122.98 m 112.3,237.152 c 108.37,-0.008 196.64,-78 229.57,-184.789 L 2656.8,353.438 2465.91,273.75 c 18.26,-38.848 53.24,-49.734 86.08,-49.734 15.07,0 29.69,2.293 42.04,5.234 35.98,8.652 58.98,25.699 89.43,60.605 l 110.25,-58.175 c -32.6,-44.512 -89.69,-94.024 -172.35,-111.883 -23.63,-5.129 -48.49,-8.086 -73.52,-8.086 -88.66,0 -179.57,37.187 -225.88,147.43 -13.39,31.797 -19.62,63.586 -19.62,94.297 0,93.898 58.31,177.093 151.93,216.328 33.92,14.281 66.98,20.824 98.37,20.824" />
        <path
           id="path38"
           style="fill:#3a55ae;fill-opacity:1;fill-rule:nonzero;stroke:none"
           d="m 5168.01,688.773 c -45.62,0 -91.54,-9.593 -136.48,-28.519 -130.71,-54.774 -212.01,-172.367 -212.01,-306.816 0,-44.833 9.19,-89.383 27.32,-132.411 55.39,-131.8356 170.71,-207.4997 316.36,-207.4997 31.02,0 62.76,3.4649 94.33,10.3204 125.07,27.0195 198.26,105.4613 230.75,149.8123 16.87,23.031 22.89,52.258 16.47,80.07 -6.42,27.825 -24.61,51.465 -49.85,64.786 l -6.36,3.347 c 37.93,22.992 56.3,69.321 42.86,112.875 -46.87,151.938 -176.83,254.028 -323.39,254.035 z M 5055.7,353.438 h 1.49 l 180.21,73.73 c -16.76,34.855 -55.13,56.266 -92.85,56.266 -12.21,0 -24.36,-2.246 -35.68,-7.016 -48.44,-20.43 -66.29,-68.598 -53.17,-122.98 M 5168,590.59 c 108.37,-0.008 196.63,-78 229.57,-184.789 L 5272.16,353.438 5081.27,273.75 c 18.26,-38.848 53.24,-49.734 86.09,-49.734 15.06,0 29.68,2.293 42.03,5.234 35.98,8.652 58.98,25.699 89.42,60.605 l 110.27,-58.175 c -32.61,-44.512 -89.7,-94.024 -172.37,-111.883 -23.62,-5.129 -48.47,-8.086 -73.51,-8.086 -88.66,0 -179.56,37.187 -225.88,147.43 -13.39,31.797 -19.61,63.586 -19.61,94.297 0,93.898 58.31,177.093 151.92,216.328 33.92,14.281 66.98,20.824 98.37,20.824" />
        <path
           id="path40"
           style="fill:#ffffff;fill-opacity:1;fill-rule:nonzero;stroke:none"
           d="M 429.133,111.641 H 253.332 L 98.1836,577.133 H 256.934 l 85.203,-307.641 h 1.793 l 86.097,307.641 H 585.199 L 429.133,111.641" />
        <path
           id="path42"
           style="fill:#ffffff;fill-opacity:1;fill-rule:nonzero;stroke:none"
           d="M 616.602,577.133 H 769.066 V 111.641 H 616.602 Z M 769.066,635.43 H 616.602 V 752.023 H 769.066 V 635.43" />
        <path
           id="path44"
           style="fill:#ffffff;fill-opacity:1;fill-rule:nonzero;stroke:none"
           d="m 1135.01,478.469 h -94.17 v -211.66 c 0,-36.77 21.53,-44.844 54.72,-44.844 12.54,0 26,1.797 39.45,1.797 V 111.641 c -27.8,-0.899 -55.61,-4.473 -83.4,-4.473 -130.059,0 -163.239,37.656 -163.239,164.113 v 207.188 h -77.133 v 98.664 h 77.133 V 717.945 H 1040.84 V 577.133 h 94.17 v -98.664" />
        <path
           id="path46"
           style="fill:#ffffff;fill-opacity:1;fill-rule:nonzero;stroke:none"
           d="m 1186.15,577.133 h 147.98 V 495.52 h 1.8 c 22.42,59.191 74.44,90.578 139.91,90.578 11.66,0 24.23,-0.895 35.88,-3.586 V 443.488 c -19.74,5.379 -37.67,8.973 -58.3,8.973 -75.33,0 -114.8,-52.031 -114.8,-110.32 v -230.5 h -152.47 v 465.492" />
        <path
           id="path48"
           style="fill:#ffffff;fill-opacity:1;fill-rule:nonzero;stroke:none"
           d="M 1545.83,577.133 H 1698.3 V 111.641 H 1545.83 Z M 1698.3,635.43 H 1545.83 V 752.023 H 1698.3 V 635.43" />
        <path
           id="path50"
           style="fill:#ffffff;fill-opacity:1;fill-rule:nonzero;stroke:none"
           d="m 1783.51,577.133 h 147.99 v -63.68 h 1.79 c 27.81,47.535 90.59,77.137 146.19,77.137 155.17,0 167.73,-113.02 167.73,-180.277 V 111.641 H 2094.73 V 336.77 c 0,63.66 7.18,128.242 -76.23,128.242 -57.4,0 -82.52,-48.418 -82.52,-99.543 V 111.641 h -152.47 v 465.492" />
        <path
           id="path52"
           style="fill:#f3db12;fill-opacity:1;fill-rule:nonzero;stroke:none"
           d="m 3074.2,214.797 c 70.85,0 93.26,69.941 93.26,129.148 0,59.192 -22.41,130.043 -93.26,130.043 -70.86,0 -92.38,-70.851 -92.38,-130.043 0,-59.207 21.52,-129.148 92.38,-129.148 z m 0,375.793 c 144.39,0 245.73,-106.742 245.73,-246.645 0,-139.922 -101.34,-245.7614 -245.73,-245.7614 -144.4,0 -244.85,105.8394 -244.85,245.7614 0,139.903 100.45,246.645 244.85,246.645" />
        <path
           id="path54"
           style="fill:#f3db12;fill-opacity:1;fill-rule:nonzero;stroke:none"
           d="m 3377.37,577.133 h 147.99 v -63.68 h 1.79 c 27.8,47.535 90.6,77.137 146.19,77.137 155.17,0 167.73,-113.02 167.73,-180.277 V 111.641 H 3688.59 V 336.77 c 0,63.66 7.18,128.242 -76.23,128.242 -57.41,0 -82.52,-48.418 -82.52,-99.543 V 111.641 h -152.47 v 465.492" />
        <path
           id="path56"
           style="fill:#f3db12;fill-opacity:1;fill-rule:nonzero;stroke:none"
           d="m 3925.41,752.023 h 152.46 V 111.641 h -152.46 v 640.382" />
        <path
           id="path58"
           style="fill:#f3db12;fill-opacity:1;fill-rule:nonzero;stroke:none"
           d="m 4168.49,577.133 h 152.46 V 111.641 h -152.46 z m 152.46,58.297 h -152.46 v 116.593 h 152.46 V 635.43" />
        <path
           id="path60"
           style="fill:#f3db12;fill-opacity:1;fill-rule:nonzero;stroke:none"
           d="m 4406.17,577.133 h 147.98 v -63.68 h 1.79 c 27.81,47.535 90.6,77.137 146.19,77.137 155.17,0 167.73,-113.02 167.73,-180.277 V 111.641 H 4717.4 V 336.77 c 0,63.66 7.15,128.242 -76.25,128.242 -57.4,0 -82.52,-48.418 -82.52,-99.543 V 111.641 h -152.46 v 465.492" />
        <path
           id="path62"
           style="fill:#ffffff;fill-opacity:1;fill-rule:nonzero;stroke:none"
           d="m 2440.34,353.438 c -13.12,54.382 4.73,102.55 53.16,122.98 46.27,19.48 106.34,-3.113 128.53,-49.238 l -180.21,-73.742 z m 243.12,-63.583 c -30.45,-34.906 -53.45,-51.953 -89.43,-60.605 -39.24,-9.34 -101.47,-12.18 -128.12,44.5 l 190.89,79.688 125.41,52.363 c -42.48,137.719 -176.95,227.554 -327.94,163.965 -93.62,-39.235 -151.93,-122.43 -151.93,-216.328 0,-30.711 6.23,-62.5 19.62,-94.297 59.39,-141.375 192.11,-162.6176 299.4,-139.344 82.66,17.859 139.75,67.371 172.35,111.883 l -110.25,58.175" />
        <path
           id="path64"
           style="fill:#f3db12;fill-opacity:1;fill-rule:nonzero;stroke:none"
           d="m 5055.7,353.438 c -13.12,54.382 4.73,102.55 53.17,122.98 46.27,19.48 106.34,-3.113 128.53,-49.238 l -180.21,-73.742 z m 243.11,-63.583 c -30.44,-34.906 -53.44,-51.953 -89.42,-60.605 -39.23,-9.34 -101.47,-12.18 -128.12,44.5 l 190.89,79.688 125.41,52.363 c -42.48,137.719 -176.95,227.554 -327.94,163.965 -93.61,-39.235 -151.92,-122.43 -151.92,-216.328 0,-30.711 6.22,-62.5 19.61,-94.297 59.39,-141.375 192.12,-162.6176 299.4,-139.344 82.66,17.859 139.75,67.371 172.36,111.883 l -110.27,58.175" />
      </g>
    </g>
  </g>
</svg>
