<?xml version="1.0" encoding="UTF-8" standalone="no"?>
<svg
   enable-background="new 0 0 122.88 38.48"
   viewBox="0 0 186 39.48"
   version="1.1"
   id="svg8"
   sodipodi:docname="whatsapp.svg"
   width="186"
   height="39.48"
   inkscape:version="1.1 (c4e8f9ed74, 2021-05-24)"
   xmlns:inkscape="http://www.inkscape.org/namespaces/inkscape"
   xmlns:sodipodi="http://sodipodi.sourceforge.net/DTD/sodipodi-0.dtd"
   xmlns="http://www.w3.org/2000/svg"
   xmlns:svg="http://www.w3.org/2000/svg">
  <defs
     id="defs12" />
  <sodipodi:namedview
     id="namedview10"
     pagecolor="#ffffff"
     bordercolor="#666666"
     borderopacity="1.0"
     inkscape:pageshadow="2"
     inkscape:pageopacity="0.0"
     inkscape:pagecheckerboard="0"
     showgrid="false"
     width="186px"
     height="39.48px"
     inkscape:zoom="3.5361094"
     inkscape:cx="164.16347"
     inkscape:cy="19.230174"
     inkscape:window-width="1398"
     inkscape:window-height="872"
     inkscape:window-x="42"
     inkscape:window-y="0"
     inkscape:window-maximized="1"
     inkscape:current-layer="svg8" />
  <path
     style="color:#000000;clip-rule:evenodd;fill:#2ab200;fill-rule:evenodd;stroke-width:1.23208;-inkscape-stroke:none"
     d="M 179.07301,0.59336626 H 6.3216438 C 2.8515291,0.59336626 0,2.4949701 0,4.8090912 V 35.103955 c 0,2.31412 2.8515291,4.215725 6.3216438,4.215725 H 179.07301 c 3.47011,0 6.32164,-1.901605 6.32164,-4.215725 V 4.8090912 c 0,-2.3141211 -2.85153,-4.21572494 -6.32164,-4.21572494 z"
     id="path2" />
  <path
     style="color:#000000;fill:#ffffff;-inkscape-stroke:none"
     d="m 25.29,21.2 c -0.24,-0.12 -1.44,-0.71 -1.67,-0.79 -0.22,-0.08 -0.39,-0.12 -0.55,0.12 -0.16,0.24 -0.63,0.79 -0.77,0.96 -0.14,0.16 -0.28,0.18 -0.53,0.06 -0.24,-0.12 -1.03,-0.38 -1.96,-1.21 -0.72,-0.65 -1.22,-1.45 -1.36,-1.69 -0.14,-0.24 -0.02,-0.38 0.11,-0.5 0.11,-0.11 0.24,-0.28 0.37,-0.43 0.13,-0.15 0.16,-0.24 0.24,-0.41 0.08,-0.16 0.04,-0.3 -0.02,-0.43 -0.06,-0.12 -0.55,-1.32 -0.75,-1.81 -0.2,-0.48 -0.4,-0.41 -0.55,-0.42 -0.14,-0.01 -0.3,-0.01 -0.47,-0.01 -0.17,0 -0.43,0.06 -0.65,0.3 -0.22,0.24 -0.85,0.84 -0.85,2.04 0,1.2 0.87,2.36 1,2.53 0.12,0.16 1.72,2.63 4.17,3.68 0.58,0.25 1.04,0.4 1.39,0.52 0.58,0.18 1.12,0.16 1.54,0.1 0.47,-0.07 1.44,-0.59 1.65,-1.16 0.2,-0.57 0.2,-1.06 0.14,-1.16 -0.07,-0.11 -0.23,-0.17 -0.48,-0.29 z m 2.46,-8.95 c -1.84,-1.85 -4.3,-2.86 -6.91,-2.86 -5.38,0 -9.76,4.38 -9.76,9.76 0,1.72 0.45,3.4 1.3,4.88 L 11,29.09 16.18,27.73 c 1.43,0.78 3.03,1.19 4.66,1.19 v 0 c 5.38,0 9.76,-4.38 9.76,-9.76 0,-2.61 -1.01,-5.06 -2.85,-6.91 z m -6.91,15.03 c -1.46,0 -2.89,-0.39 -4.13,-1.13 l -0.3,-0.18 -3.07,0.8 0.82,-2.99 -0.19,-0.31 c -0.82,-1.29 -1.24,-2.78 -1.24,-4.32 0,-4.48 3.64,-8.12 8.12,-8.12 2.17,0 4.21,0.85 5.74,2.38 1.53,1.54 2.37,3.57 2.37,5.74 -0.01,4.48 -3.65,8.13 -8.12,8.13 z"
     id="path4" />
  <path
     style="color:#000000;fill:#26a000;-inkscape-stroke:none"
     d="M 40.66,0 V 38.48 H 38.27 V 0 Z"
     id="polygon6" />
  <g
     aria-label="Compartilhe"
     id="text5935"
     style="font-size:24px;font-family:'Proxima Nova';-inkscape-font-specification:'Proxima Nova, Normal';font-variant-ligatures:none;fill:#ffffff">
    <path
       style="color:#000000;-inkscape-font-specification:'Proxima Nova, Normal';-inkscape-stroke:none"
       d="m 44.899368,19.680048 q 0,-2.425781 1.125,-4.324219 1.125,-1.898437 3.070313,-2.929687 1.945312,-1.03125 4.347656,-1.03125 1.265625,0 2.34375,0.328125 1.089844,0.316406 1.886719,0.890625 0.808594,0.5625 1.394531,1.230468 0.597656,0.65625 1.042969,1.464844 l -2.929688,1.441406 q -0.515625,-1.007812 -1.535156,-1.664062 -1.019531,-0.65625 -2.203125,-0.65625 -2.191406,0 -3.621094,1.488281 -1.417968,1.488281 -1.417968,3.761719 0,2.273437 1.417968,3.773437 1.429688,1.488282 3.621094,1.488282 1.183594,0 2.203125,-0.65625 1.019531,-0.667969 1.535156,-1.675782 l 2.929688,1.417969 q -0.457031,0.808594 -1.042969,1.476563 -0.574219,0.65625 -1.382812,1.230468 -0.808594,0.574219 -1.898438,0.902344 -1.078125,0.328125 -2.34375,0.328125 -1.792969,0 -3.375,-0.609375 -1.570312,-0.609375 -2.71875,-1.675781 -1.136719,-1.078125 -1.792969,-2.625 -0.65625,-1.558594 -0.65625,-3.375 z"
       id="path7447" />
    <path
       style="color:#000000;-inkscape-font-specification:'Proxima Nova, Normal';-inkscape-stroke:none"
       d="m 62.0439,24.90661 q -0.714844,-1.382812 -0.714844,-3.046875 0,-1.664062 0.714844,-3.023437 0.726562,-1.371094 2.132812,-2.203125 1.417969,-0.84375 3.269531,-0.84375 1.863282,0 3.28125,0.84375 1.417969,0.832031 2.132813,2.203125 0.726562,1.359375 0.726562,3.023437 0,1.664063 -0.726562,3.046875 -0.714844,1.371094 -2.132813,2.214844 -1.417968,0.84375 -3.28125,0.84375 -1.851562,0 -3.269531,-0.84375 -1.40625,-0.84375 -2.132812,-2.214844 z m 2.449218,-3.046875 q 0,1.429688 0.785157,2.414063 0.796875,0.972656 2.167968,0.972656 1.382813,0 2.179688,-0.972656 0.796875,-0.972656 0.796875,-2.414063 0,-1.417968 -0.796875,-2.378906 -0.796875,-0.972656 -2.179688,-0.972656 -1.371093,0 -2.167968,0.972656 -0.785157,0.960938 -0.785157,2.378906 z"
       id="path7449" />
    <path
       style="color:#000000;-inkscape-font-specification:'Proxima Nova, Normal';-inkscape-stroke:none"
       d="M 75.860306,27.672235 V 16.082392 h 3.046875 v 1.488281 q 0.46875,-0.621094 1.523437,-1.195313 1.066407,-0.585937 2.273438,-0.585937 1.253906,0 2.074219,0.550781 0.820312,0.539063 1.136718,1.535156 0.550782,-0.84375 1.640625,-1.464843 1.089844,-0.621094 2.34375,-0.621094 1.628907,0 2.519532,0.878906 0.890625,0.878906 0.890625,2.625 v 8.378906 h -3.070313 v -7.324218 q 0,-0.855469 -0.421875,-1.347657 -0.421875,-0.492187 -1.3125,-0.492187 -0.738281,0 -1.382812,0.398437 -0.632813,0.398438 -1.007813,0.9375 v 7.828125 h -3.082031 v -7.324218 q 0,-1.839844 -1.722656,-1.839844 -0.726563,0 -1.371094,0.398437 -0.632813,0.398438 -1.03125,0.9375 v 7.828125 z"
       id="path7451" />
    <path
       style="color:#000000;-inkscape-font-specification:'Proxima Nova, Normal';-inkscape-stroke:none"
       d="M 96.321243,32.090204 V 16.082392 h 3.046875 v 1.464843 q 1.394532,-1.757812 3.574222,-1.757812 2.28515,0 3.71484,1.617187 1.42969,1.617188 1.42969,4.453125 0,2.835938 -1.42969,4.476563 -1.42969,1.628906 -3.71484,1.628906 -2.14453,0 -3.574222,-1.78125 v 5.90625 z m 3.046875,-8.191406 q 0.386719,0.5625 1.136722,0.960937 0.75,0.386719 1.47656,0.386719 1.3125,0 2.13281,-0.9375 0.82031,-0.9375 0.82031,-2.449219 0,-1.5 -0.82031,-2.425781 -0.82031,-0.925781 -2.13281,-0.925781 -0.73828,0 -1.47656,0.375 -0.738284,0.363281 -1.136722,0.9375 z"
       id="path7453" />
    <path
       style="color:#000000;-inkscape-font-specification:'Proxima Nova, Normal';-inkscape-stroke:none"
       d="m 109.58687,24.121454 q 0,-0.785156 0.23437,-1.429687 0.2461,-0.65625 0.63282,-1.078125 0.39843,-0.421875 0.92578,-0.703125 0.53906,-0.292969 1.08984,-0.410157 0.55078,-0.128906 1.125,-0.128906 1.17188,0 2.13281,0.375 0.96094,0.363281 1.53516,1.042969 v -1.464844 q 0,-0.878906 -0.70313,-1.40625 -0.6914,-0.539062 -1.83984,-0.539062 -1.86328,0 -3.33984,1.371093 l -1.19532,-2.132812 q 2.02735,-1.828125 5.0625,-1.828125 1.05469,0 1.92188,0.222656 0.87891,0.222656 1.60547,0.714844 0.73828,0.492187 1.14844,1.371094 0.41015,0.878906 0.41015,2.085937 v 7.488281 h -3.07031 v -1.21875 q -0.59766,0.714844 -1.57031,1.113282 -0.96094,0.398437 -2.09766,0.398437 -0.71484,0 -1.41797,-0.246094 -0.6914,-0.246093 -1.27734,-0.703125 -0.58594,-0.457031 -0.94922,-1.207031 -0.36328,-0.761719 -0.36328,-1.6875 z m 3.66797,-1.230469 q -0.6211,0.480469 -0.6211,1.277344 0,0.796875 0.6211,1.265625 0.62109,0.457031 1.55859,0.457031 0.76172,0 1.41797,-0.257812 0.66797,-0.257813 1.03125,-0.75 v -1.429688 q -0.375,-0.492187 -1.04297,-0.761718 -0.65625,-0.28125 -1.40625,-0.28125 -0.92578,0 -1.55859,0.480468 z"
       id="path7455" />
    <path
       style="color:#000000;-inkscape-font-specification:'Proxima Nova, Normal';-inkscape-stroke:none"
       d="M 123.33296,27.672235 V 16.082392 h 3.04688 v 1.558593 q 0.66797,-0.796875 1.66406,-1.324218 1.00781,-0.527344 2.03906,-0.527344 v 2.976562 q -0.3164,-0.07031 -0.84375,-0.07031 -0.77344,0 -1.6289,0.398437 -0.85547,0.386719 -1.23047,0.925782 v 7.652343 z"
       id="path7457" />
    <path
       style="color:#000000;-inkscape-font-specification:'Proxima Nova, Normal';-inkscape-stroke:none"
       d="m 130.6689,18.742548 v -2.660156 h 1.92187 V 12.90661 h 3.04688 v 3.175782 h 2.35547 v 2.660156 h -2.35547 v 5.214844 q 0,0.5625 0.28125,0.925781 0.28125,0.363281 0.77344,0.363281 0.32812,0 0.63281,-0.105469 0.30469,-0.105468 0.43359,-0.257812 l 0.64453,2.332031 q -0.83203,0.75 -2.54296,0.75 -1.59375,0 -2.4375,-0.808594 -0.83204,-0.820312 -0.83204,-2.390625 v -6.023437 z"
       id="path7459" />
    <path
       style="color:#000000;-inkscape-font-specification:'Proxima Nova, Normal';-inkscape-stroke:none"
       d="m 140.31343,14.301142 q -0.52734,-0.539063 -0.52734,-1.289063 0,-0.75 0.52734,-1.277344 0.53906,-0.527343 1.27734,-0.527343 0.76172,0 1.28907,0.527343 0.53906,0.527344 0.53906,1.277344 0,0.75 -0.53906,1.289063 -0.52735,0.527343 -1.28907,0.527343 -0.73828,0 -1.27734,-0.527343 z m -0.23437,13.371093 V 16.082392 h 3.04687 v 11.589843 z"
       id="path7461" />
    <path
       style="color:#000000;-inkscape-font-specification:'Proxima Nova, Normal';-inkscape-stroke:none"
       d="M 146.14937,27.672235 V 11.664423 h 3.04687 v 16.007812 z"
       id="path7463" />
    <path
       style="color:#000000;-inkscape-font-specification:'Proxima Nova, Normal';-inkscape-stroke:none"
       d="M 152.21968,27.672235 V 11.664423 h 3.07031 v 5.90625 q 0.63282,-0.738281 1.6875,-1.253906 1.05469,-0.527344 2.36719,-0.527344 1.875,0 2.82422,0.960937 0.94922,0.960938 0.94922,2.695313 v 8.226562 h -3.04688 v -7.054687 q 0,-1.148438 -0.55078,-1.628906 -0.55078,-0.480469 -1.59375,-0.480469 -0.83203,0 -1.52344,0.386719 -0.6914,0.386718 -1.11328,0.949218 v 7.828125 z"
       id="path7465" />
    <path
       style="color:#000000;-inkscape-font-specification:'Proxima Nova, Normal';-inkscape-stroke:none"
       d="m 165.39156,21.859735 q 0,-1.675781 0.76171,-3.058593 0.76172,-1.382813 2.14454,-2.191407 1.38281,-0.820312 3.09375,-0.820312 2.60156,0 4.19531,1.769531 1.60547,1.757813 1.60547,4.59375 v 0.714844 h -8.61328 q 0.16406,1.125 1.04296,1.863281 0.87891,0.738281 2.29688,0.738281 0.77344,0 1.65234,-0.304687 0.89063,-0.316406 1.41797,-0.832031 l 1.35938,2.015625 q -0.84375,0.773437 -2.1211,1.195312 -1.26562,0.421875 -2.64843,0.421875 -2.6836,0 -4.44141,-1.675781 -1.74609,-1.6875 -1.74609,-4.429688 z m 3.16406,-1.101562 h 5.70703 q -0.0352,-0.445313 -0.21094,-0.855469 -0.17578,-0.410156 -0.5039,-0.785156 -0.31641,-0.375 -0.87891,-0.597656 -0.5625,-0.234375 -1.27734,-0.234375 -0.67969,0 -1.21875,0.222656 -0.53907,0.222656 -0.86719,0.597656 -0.32813,0.363281 -0.51563,0.785156 -0.1875,0.410157 -0.23437,0.867188 z"
       id="path7467" />
  </g>
</svg>
